<?xml version="1.0" encoding="UTF-8"?>
<svg id="Layer_1" xmlns="http://www.w3.org/2000/svg" version="1.1" viewBox="0 0 1000 420">
  <!-- Generator: Adobe Illustrator 29.2.0, SVG Export Plug-In . SVG Version: 2.1.0 Build 108)  -->
  <defs>
    <style>
      .st0, .st1 {
        fill: #fff;
      }

      .st1, .st2 {
        fill-rule: evenodd;
      }

      .st3 {
        fill: none;
      }

      .st4, .st2 {
        fill: #c0202f;
      }
    </style>
  </defs>
  <g>
    <path class="st0" d="M377.7,79.8h7.8c2.4,0,4.2.2,5.5.6,1.3.4,2.4,1.3,3.3,2.7.9,1.4,1.3,3.1,1.3,5.2s-.4,3.6-1.1,4.9c-.7,1.3-1.7,2.2-3,2.8-1.3.6-3.2.9-5.9.9h-2.1v10.1h-6v-27.2ZM383.7,84.2v8.1h1.9c1.6,0,2.7-.4,3.2-1.1.5-.8.7-1.7.7-3s-.2-1.9-.5-2.5c-.4-.6-.8-1-1.3-1.2-.5-.2-1.2-.3-2-.3h-1.9Z"/>
    <path class="st0" d="M418.2,93.4c0,9.4-3.3,14-9.9,14s-5.7-1.2-7.4-3.6c-1.7-2.4-2.5-5.9-2.5-10.5,0-9.3,3.3-14,9.9-14s5.7,1.2,7.4,3.5c1.7,2.3,2.5,5.8,2.5,10.5ZM411.9,93.4c0-3.7-.3-6.1-.9-7.3-.6-1.2-1.5-1.8-2.7-1.8s-2.1.6-2.7,1.8-.9,3.7-.9,7.3.3,6,.8,7.3c.6,1.3,1.5,1.9,2.7,1.9s2.1-.6,2.7-1.8c.6-1.2.9-3.7.9-7.4Z"/>
    <path class="st0" d="M441.9,93.4c0,9.4-3.3,14-9.9,14s-5.7-1.2-7.4-3.6c-1.7-2.4-2.5-5.9-2.5-10.5,0-9.3,3.3-14,9.9-14s5.7,1.2,7.4,3.5c1.7,2.3,2.5,5.8,2.5,10.5ZM435.6,93.4c0-3.7-.3-6.1-.9-7.3-.6-1.2-1.5-1.8-2.7-1.8s-2.1.6-2.7,1.8c-.6,1.2-.9,3.7-.9,7.3s.3,6,.8,7.3c.6,1.3,1.5,1.9,2.7,1.9s2.1-.6,2.7-1.8c.6-1.2.9-3.7.9-7.4Z"/>
    <path class="st0" d="M446.9,79.8h6v22.1h8.8v5.1h-14.8v-27.2Z"/>
    <path class="st0" d="M470.4,79.8h6.3l4.2,20.8,4.3-20.8h5.1l-6.7,27.4h-6.7c0-.1-6.5-27.4-6.5-27.4Z"/>
    <path class="st0" d="M493.2,79.8h6v27.2h-6v-27.2Z"/>
    <path class="st0" d="M505.1,79.8h6v22.1h8.8v5.1h-14.8v-27.2Z"/>
    <path class="st0" d="M523.3,79.8h6v22.1h8.8v5.1h-14.8v-27.2Z"/>
    <path class="st0" d="M546.3,79.8h6l7.8,27.2h-6.1l-1.4-5.6h-7.7l-1.3,5.6h-5.5l8.2-27.2ZM551.5,96.7l-2.8-11.2-2.6,11.2h5.4Z"/>
    <path class="st0" d="M571.7,79.8h7.8c2.4,0,4.2.2,5.5.6,1.3.4,2.4,1.3,3.3,2.7.9,1.4,1.3,3.1,1.3,5.2s-.4,3.6-1.1,4.9c-.7,1.3-1.7,2.2-3,2.8-1.3.6-3.2.9-5.9.9h-2.1v10.1h-6v-27.2ZM577.6,84.2v8.1h1.9c1.6,0,2.7-.4,3.2-1.1.5-.8.7-1.7.7-3s-.2-1.9-.5-2.5c-.4-.6-.8-1-1.3-1.2-.5-.2-1.2-.3-2-.3h-1.9Z"/>
    <path class="st0" d="M593.3,79.8h16.5v4.7h-10.6v6.3h8.2v4.7h-8.2v6.7h10.6v4.9h-16.5v-27.2Z"/>
    <path class="st0" d="M613.4,79.8h6.6l7,16.9v-16.9h4.6v27.2h-5.3l-8.3-19.7v19.7h-4.6v-27.2Z"/>
    <path class="st0" d="M654.1,85.7l-4.9,1.9c-.7-2.3-2-3.4-3.9-3.4s-1.6.2-2.1.7c-.5.5-.8,1.1-.8,1.7s.3,1.4.9,1.8c.6.5,1.9,1.1,3.8,1.8,1.8.7,3.1,1.3,4.1,1.9s1.8,1.5,2.4,2.6c.6,1.1.9,2.4.9,3.8,0,2.5-.9,4.6-2.6,6.3-1.8,1.6-4.1,2.4-7,2.4-4.9,0-8.1-2.5-9.4-7.5l5.2-1.5c.6,2.7,2.1,4.1,4.4,4.1s1.9-.3,2.5-.8c.6-.5,1-1.2,1-2.1s-.2-1.3-.7-1.8c-.4-.5-1.5-1.1-3.1-1.7-2.1-.7-3.6-1.4-4.7-2-1-.6-1.9-1.5-2.5-2.6-.7-1.1-1-2.4-1-3.8,0-2.4.8-4.4,2.4-6s3.7-2.3,6.3-2.3c4.7,0,7.7,2.1,8.9,6.3Z"/>
    <path class="st0" d="M659.1,79.8h6v27.2h-6v-27.2Z"/>
    <path class="st0" d="M689.8,93.4c0,9.4-3.3,14-9.9,14s-5.7-1.2-7.4-3.6c-1.7-2.4-2.5-5.9-2.5-10.5,0-9.3,3.3-14,9.9-14s5.7,1.2,7.4,3.5c1.7,2.3,2.5,5.8,2.5,10.5ZM683.5,93.4c0-3.7-.3-6.1-.9-7.3s-1.5-1.8-2.7-1.8-2.1.6-2.7,1.8c-.6,1.2-.9,3.7-.9,7.3s.3,6,.8,7.3c.6,1.3,1.5,1.9,2.7,1.9s2.1-.6,2.7-1.8c.6-1.2.9-3.7.9-7.4Z"/>
    <path class="st0" d="M694.6,79.8h6.6l7,16.9v-16.9h4.6v27.2h-5.3l-8.3-19.7v19.7h-4.6v-27.2Z"/>
  </g>
  <g>
    <path class="st0" d="M474,172l-.7-1.1-1.1-.2h0c-.6-1.3-1.8-1.9-2.4-2.1-.1,0-.3-.1-.3-.1l-.9-1.1-1.3.4c-.1,0-.3,0-.4.2-.1-.1-.3-.2-.5-.3-.9-.5-1.8-.6-2.6-.6l-2.6-1.8-.8,1.1-.3-.3h-.7c-.2,0-.5,0-.7,0-1.1-.8-2.5-1.4-4.4-1.4-.4-.2-.7-.4-1-.5l-1.3-1-1.3.7c-.9-.3-1.7-.3-2.4-.2-.3,0-.6,0-.9,0-.2-.2-.6-.4-1-.5-.2,0-.5,0-.7-.1-.2-.2-.6-.3-1-.4-.4,0-.7,0-1.1,0h-.8c-.6-.2-1.2-.1-1.7.1-.1,0-.2,0-.3,0l-1-1.5-1.5,1.4s0,0,0,0c-.5-.2-1.6-.5-2.7-.1-1.8,0-3.7,0-5.7.1-1.1-.3-2.2-.8-3.2-1.3l-.6-.4h-.8c-.4.1-.8.3-1.1.4-.9-.3-1.7-.4-2.3-.4-.5,0-.9,0-1.1-.2l-1.1-.8-1.2.6c-.7.4-1.8.1-3.1,0-1.6-.3-3.6-.6-5.5,0-1.6-.5-3.2-.4-4.6-.2-.9,0-1.7.2-2.2,0l-1.2-.3-.9.8c0,0-.4.2-.5.3-.4.2-.9.5-1.5.9-1.1-.3-2.3-.2-3.5.2-.8.3-1.4.8-1.9,1.5-1.4.2-2.7.8-3.7,1.3-1.2.6-1.9.9-2.4.8l-1.8-.4-.8,1.7c-.6,1.4-.6,1.4-3.4.7l-2.3-.6-.4,2.4c-.1.7-.2,1.4-.3,2.3-.4.3-.9.7-1.3,1.5-1.4,3.1-.2,5.6.6,7.4.2.4.4.8.5,1.4,0,.4,0,1,.3,1.6.4.7.8,1.1,1.2,1.4h-.2c-.2.4-.4.9-.5,1.6l-.3,3.6,2.2-.8c.5.8,1.1,1.4,1.6,2,.7.7,1.1,1.1,1.3,1.8l.8,2.4,1.6-.8s0,0,.1.1c.4.4.9.8,1.5,1.2.7.4,1.4.5,2,.7.4,0,.8.2,1.1.3,1.9,1,7.2,2.8,8.6,3.1.6.1,1.9.5,3.1-.4,1.1-.8,1.2-2,1.2-2.9,0-.4,0-.9.2-1.5,0,0,.1,0,.2-.1.1-.1.4-.3.4-.3h1.6c0,0,.5-1.5.5-1.5,0-.3.2-.6.2-1,.2,0,.3,0,.5.2l1.5.9,1.2-1.3c.3-.3.5-.6.6-1h1.1c0,0,.6-1.1.6-1.1.4-.7,1.1-.9,3.2-.9,1.2,0,2.5,0,3.8-.4.8.4,1.5.5,2.1.5,0,0,0,.1-.1.2l-.4.6v.7c0,6.3-2.5,26.2-4.3,29.3l-2.1,9.1v.3c0,.5,0,.9,0,1.2,0,.4,0,.7,0,1.1-.2.2-.3.4-.5.6l-.6.8v.9c0,.9-1.3,4.7-2,6.9-.9,2.8-1.4,4.4-1.7,5.5l-1.1.4-.2,1.3c-.3,2.2-5.8,10.7-8.2,14.3-.6,1-1.2,1.9-1.6,2.5-.6.1-1.4.5-2.1,1.5-.5,1-.4,2.3-.3,3.7-2.4,4.1-8.3,18.4-9.5,24.2-1,.4-2.3,1.1-3.2,2.6-.4.6-.4,1.2-.4,1.7,0,.2,0,.5,0,.6-.1.3-.3.7-.5,1-.3.6-.7,1.3-.8,2.1,0,.5,0,1,0,1.7-.1.5-.3,1.2-.6,2.1-.6,2.2-1.1,3.8-1.2,4.9,0,1.3,0,2.7.2,4,.1,1.2.2,2.3.2,3.2v2.1s2,.4,2,.4c0,0,0,0,0,0,.3.8.8,1.5,1.3,2.1l.6.7h.9c.3,0,.6,0,.8,0,4.4,0,7.1-2.1,9.7-4.1l.7-.5v-.9c.3-1.3.9-1.7,1.4-1.9l1.4-.6v-1.5c0-2,1.7-7.6,2.8-11.3.7-2.2,1.2-4,1.5-5.1.5-.9.8-2.4,1.3-4.6.2-.7.3-1.4.4-1.9l.4-1.2c.3-1.9,3.3-4.3,5.3-5.3l.7-.4.3-.8c.5-1.2,1.1-2.6,1.4-4.4,2.3-2.6,8.3-10.9,9.7-15.3.6-.3,1.1-.7,1.6-1.1,0,0,.2.1.2.2,1.7,1.1,4.2,2.7,6.3,5.6,1.7,2.3,3.6,5.7,5.4,8.8,1,1.9,2,3.6,2.9,5,1.4,2.3,1.9,4.4,2.3,6.1l.2.8c-.2,2.2-.6,5.2-.9,8.2-.6,5.1-1.3,10.5-1.4,14,0,2.5.6,4.7,1.2,6.9l.7,2.6h1.8c.3-.1.7,0,1.2,0,.6.1,1.4.3,2.4.3h1.8s.2-.9.2-.9l.3-.5c.4-.8.7-1.6.9-2.5,2.6-2.2,3.8-5.8,4.7-9.2.3-.2.7-.5,1-.9l.3-.5v-.6c.1-2.2.5-4.3.9-6.5.7-3.9,1.4-8.3.7-14.4v-.7c0,0-.2-.2-.2-.2-.2-1-.5-3.5-.7-4.7-.1-.8-.2-1.5-.3-1.9-.1-2.9-3.3-8.2-8.4-16.4-2.9-4.7-7.2-11.7-7.3-13.4v-1s-.8-.6-.8-.6c-1-1-1.3-6.9-1.4-10.1-.1-3.1-.3-5.8-.7-7.6.3-1.6-.5-3.1-1.1-4.2,0-.2-.2-.4-.3-.6v-.5c.8-3.1,1.6-8.7,2.5-14.7,1.2-8.4,2.6-18,3.9-21.7h0c.8.3,1.7.6,2.4.7.4.5,1,1,1.8,1.3.2.4.5.7.9,1l.4,1,.5.4c1,.7,2,.7,2.8.8h0l.3,1.1h1.8c.7-.1,1.3-.3,1.8-.6l.9.6,1-.4c.6-.2,1.2-.4,1.8-.5,1.6-.4,3.8-.9,5.1-2.6,1.2-.4,2.1-1.2,2.5-2.4,1.8-1,2.6-2.8,3.2-4.2.4-.9.8-1.8,1.3-2.1l1.1-.7v-1.3c-.2-.5,0-.9.5-1.7.7-1.2,1.7-3.1.6-5.5ZM380.4,184.7h-.6c0,0-.1-.1-.2-.2h2.2c0,0-.1,0-.1,0-.5,0-.8,0-1.4.3Z"/>
    <path class="st0" d="M524.2,164.2c-.3-.3-1.1-.2-1.7-.2-.6-1-2-1.2-1.6-3-.6-1.4-2.2-2-2.3-3.7-1.1-1.2-3.1-.4-4.9-.7-2.1-.4-4-1.5-5.1.1-.8-.5-1.7.1-2.9-.1-.9,1.2-2.1,2-3.5,2.6-.6,1.5,0,3.5-1.7,4.1-.1,1.6,0,3,0,4.3,2,1.5,2.8,4,4.7,5.5.7,1.6,1.7,10.4.7,12.4.1.6,1.1.5,1.1,1.3-1,4.5.5,8.4-.9,12.9.4.3.5.7.7,1.1-1.6,1.3-1.2,25.6-.2,27.5-1.4,2-.6,6.7-.4,9.3-1.8,3.2-2.3,30.3-3.3,34.3.3.3.8.5.7,1.1-.8,1.1-.6,2.8-.6,4.5,0,1.5.3,3.5-.9,4.1.9,4.5-2.9,18.6-.2,21.9-.4.3-1,.3-1.2.8-.3,1.4.7,2.4.8,3.7,0,.7-.6,1.6-.7,2.4,0,1.3.7,2.4.4,3.6-.2,1.1-1.7,2-2.2,3.2-.3.8.3,1.4-.7,2.1.8-.2.8.3.7.9,0,.4-.5.3-1,.3,0,1.3-1.1,2-1.4,2.5-.3.5-.2,1.2-.5,1.7-.4.6-.2,14.1-.4,14.8-.4,1.2.2,2.5-.2,3.6-.8-.1-1,.3-1.4.6-.1.7.5.8.3,1.6-2,.2-1.3,2-1.5,3.4-.6-.2-.8.2-1.1.3-.7,1.4.2,1.9.4,3.1l-1.6,19.4c0,1-.7,2.3-.9,3.6.4.5.9,1,1.7,1.3-1.4,1.4,0,4.4-.5,6.4.8.9,2,1.7,1.8,3,.8.3.5-.6,1.2-.5,1.6.7,1.5,3.2,3,4.4,1.2-.9,3.2-1,4.3-2.1.5.3.7.8,1.3,1.1.9,0,1-.6,1.7-.6,3.6,1.5,3.4-3.7,5.3-5,.1-.5-.3-.6-.1-1.2,2.7-.9,3.8-3.1,3.7-6.2.8-.7,2-1.1,2.9-1.6.5-1.4.9-3.3.2-4.8,2.3-1,3.7-14.2,3.4-16.7-.4-.5-1.3-.6-1.7-1.1.4-.4,0-.5,0-1,.3-.2,1.1,0,1-.7-.7-4.6-1.7-24.9-1.1-29.1-.2-.6-1.5-.3-1.5-1.1.2-1.2,1.6-1.3,1.3-3.1-2.8-1.3-.5-5.4-2.2-7.2.3-.3.9-.2,1-.7-.1-1.1-.8-3.7-.4-5.2,0-.7-1.2-.3-1.1-1.1.5-.5,1.4-.7,1.8-1.3-.2-1-.4-2-.8-2.8-.5-.1-1.2-.1-1.5-.4.3-1.3,1.8-2,2-3.4.3-1.5.5-10.6,1.2-12.3-.6-.4-1-.9-1.1-1.8.3-.5,1.3-.4,1.4-1.1-1.7-.4-1.2-2.3-.3-3-.4-2.1-.3-5.1-.3-7.3-1.8-2.6,2.4-28.5,1.9-31.2-.1-.7-.8-1.2-.9-1.9-.1-.9.5-2,.7-3.1.2-1.1-.4-2.4-.2-3.6,0-.4.6-1,.6-1.4.2-1.6-1.1-23.5-.9-24.4.2-1.1,1.8-1.5,1.4-2.7-.4-.4-.7-.7-.7-1.4,2.1-1.9.8-5.6,3-8.3-.1-1.3,0-2.8-.4-3.8,2.1-1.7.8-11.2,1.4-13.4.1-.4.6-.6.6-1,0-.8-.5-1.5-.5-2.3,0-2.1.8-4.2.4-6.2Z"/>
  </g>
  <g>
    <path class="st0" d="M955.3,216.1c-.8-.2-1.9.7-2.9.6-1.6-.2-1.8-1.8-3.2-2.3-1.9-.7-6.3-.3-8.7-.6-2.2-.3-7.1-.9-9-.6-1.8.3-3.3,2-5,2.6-2.5,1-4.7.9-7.3,1.5-1.9,2.2-5.1,3-6.1,6.1.8,3.8-1.6,4.7-1.5,7.6.1,2.7,2.5,4.1,4.1,6.1,1,1.3,1.2,2.9,2.6,3.5,2.2.8,5.3-.2,7.9.3,2.6.4,4.5,2.5,7,2.6,1.8.1,2.7-.9,4.4-.3,1.2-1.3,4.1-1,4.4-3.2,1,0,1.5.5,2.6.3,2.5-2.8,5.7-4.5,8.7-7.3.4-.4.6-1.3.9-1.5.5-.4,1.6-.2,2-.6.6-.6,4.9-6.5,5-7.9,0-1.7-4.1-6.6-5.8-7Z"/>
    <path class="st0" d="M761.9,306.4c1.2,0,1.6,1.3,3,1.4.6-.4.7-1.4.7-2.5,1.6-.2,2.5-2.3,4.2-1.2,1.1-1.7,3.5-2.1,4-4.5.8-.1,1.2-.8,1.9-1,.8,0,.7,1.1,1.7.8,1.3-1.3,3.5-3,5.8-2,1.2-1.4,3.9-1.2,5.1-2.7.5.2.7.6,1.4.6,2.1-1.6,5.9-.8,8.2-1.9,2.2,1.4,5.3,1.7,7.7,1.2.4.2.6.8,1.2.8,2.6-.6,5.6,1.5,7.9.2.4.4.3,1.4,1,1.4,1-.2.8-.7,1.9-.4.4.4.4,1.3.7,1.8.8.4,1.1-.3,1.9-.2.9.2,1.6,1.2,2.6,1.4.3,0,.8-.4,1.4-.4,1.1,0,2,0,3,0,.9,0,1.8.5,2.4.4.8-.1,1.5-.8,2.3-.8,1,0,1.9.6,2.8.4.4,0,.9-.6,1.4-.8,2.4-1.1,3.8-1.8,5.4-3.3,0-1.4.8-2,1.1-3.3,2.9-.3,2.8-3.9,5.1-4.9.3-2.6,2.3-3.1,3-5.3,0-.9-.8-1.1-.9-1.9.3-.3.7-.5.7-1.2-.2-1.2-.6-2.2-1.1-3.1-1.1,0-1.2-.3-1.7-1.2-2.4-.3-4.1-2-6.6-1.6-.7-.6-1.6-1-2.6-1.2-.8.3-.9,1.3-1.4,1.9-3.1.5-5,3.4-8.7,2.5-.5.3-.8,1-1.4,1.2-1-.3-2.5.3-3.5-.4-2.2,2.7-4.8-.9-7.9,0-1.1-1.9-2.6,0-4,.2-1.4,0-3.1-.9-4.7-.6-1.8.3-2.8,1.3-3.7,2.5-1.8-1.8-5.3-3.5-8.4-2.5-1.2-1.1-2.4,0-3.7-.2-1.2-.1-2.2-1.4-3.5-1.8-1.3-.4-2.6,0-3.7-.8-1,.6-2.1,1.1-3,1.8-1.3-1.4-2.3-.3-3.5,0-.3,0-.8-.2-1.1-.2-.8.1-1.5,1-2.3,1.2-1.2.2-2.3-.3-3.1.6-.7-.1-.9-.7-1.6-.8-.6,1.2-1.6,2.1-2.8,2.7-1.1.1-.9-1.2-1.6-1.6-.7-.4-1.8-.3-1.7-1.6,2.5-2.6-.1-12.8,2.3-15.4,1.1-.5,1.9-.3,2.4-1.2,1.2-1.9-.3-5.5,2.4-5.3.4-2,1.6-13.4,1.7-15.7,2.1.1,2.6-1.5,3.1-3.1,0-.8-1-.6-1-1.4,1.5-2.7,4.1-4.3,5.6-7h1.2c.4-.6.5-1.6.7-2.3,1.7,0,3.4-.5,5.4-.2.4,0,.4.6.9.8.4.2,3.2.4,3.5.4,1.6,0,3.7-1,4.9-.8.9.2,1.3,1.4,1.9,1.8,2.6-1.8,5.2.6,7.7,1.4,1.4-1,2.3.3,3.8-.4.6.2.5,1.1,1.4,1,1.7-.7,3.3.8,4.9,1,.4,0,.8-.3,1.2-.2,1.4.3,2.6,1.4,4,1.4,1.4,0,2.5-.8,3.5.4,3-1.3,5.9,1.4,8.9,1.4s1.3-.6,1.9-.6c1.5,0,2.5,1.1,4,1.2.3-.5.4-1.1.7-1.6.9-.8,2.1-1.1,3.8-1,.8-.8,1.8-1.4,2.8-2v-1.9c.1-.5-.8.1-.7-.4.5-1.2,0-1.8-.5-2.7.5-.8.7-1.9.7-3.3-2.1-1.4-3.9-3.9-7.2-3.5-.8-.8-1.3-2-2.4-2.3-.7.2-1.2.4-1.9.6-.4-.2.2-1.5-.5-1.4-.4-.7-.7.5-1.4.2-1.2-2.2-4.8-3.8-7.5-2.5-1.1-.7-2.5-1-3.7-1.6-.4.2-.3,1-.9,1-2.9-1.8-5.5.7-8.6.6-2,0-3.6-1.7-5.4-.6-1-1.2-2.7-.7-3.3-.8-.6-.1-1.2-.9-1.9-1-.8-.1-1.8.5-2.8.4-1.3-.1-2-.1-3.2,0-2,.2-3.8-1.3-5.9-1.2-.2-1.9-1.9-1.6-3-.8-1.5-.7-2.8.3-4.2-.8-.5.2-.9.6-1.6.6-.9-.4-1.5-1.1-2.4-1.4-3,1.2-5.7-2.2-8.7-.2-.7-.4-1.3-.8-2.1-1-1.8,1.5-4.7-.6-6.1,1.2-.4-.2-.4-.9-1-.8-2.4,1.1-5.1-2.1-6.8.4-1.3-.7-2,.8-3.1,1-.6,0-.1-1.2-.9-1-1.4-.2-1.5,1.1-2.4,1.4-.2-.4-.8-.4-1.2-.6-1.5,1.9-3.9,1.7-6.5,1.4-.8.9-1.7,1.5-2.6,2.1-1.4-1.3-3.3.2-4.4,1v1.6c-1.7.6-3.8,3.2-5.6,1.4-1.5.5-1.6,2.6-3.7,2.5-1.1,1.3-1.4,5.3.5,5.8-.3.5-.5,1.2-.7,1.9,2.3,1.2,4.2,2.9,7.3,3.1.8,1.4,1.5,2.9,3.5,2.9.7-.1.9-.8,1.7-.8.9.3,1,1.4,1.4,2.3,1.5.3,3.8.6,5.1-.2.8.9,2.8.7,3.7,0,.4.5,1.1.8,1.6,1.4,1.4,11.2-.7,37.1-.9,47.6-.2,1.3-1.4,2.3-1.6,3.7,0,1,.6,2.2.5,3.3,0,.7-.7,1.1-.7,1.7,0,.5.2.9.2,1.4,0,.3-.5.5-.5.8-.2.7.4,1.4,0,2,.6,1,1.4,1.9,1.9,3.1-.4.4-.7.9-.7,1.8.9,1.1,1.7,2.3,3.3,2.5-.1.9.2,1.2.2,1.9,1.9,2.9,6.5,2.9,8.4,5.8,1.6.2,3-1.5,4-1.6Z"/>
    <path class="st1" d="M873.7,174c2.7-1.6,4,.8,6,1.9,2.4,1.4,5.1,1.8,8.4,1.9,1.8,1,1.5,4.2,3.3,5.3,0,.9,0,1.6-.2,2.2,0,1.1,1.4,1,1.4,2.2-.5,2.8,1.4,5,.5,7.7.2,1,1.3.9,1.7,1.7-.2,1.9,1.2,3.3,1.4,5,.2,1.4-.5,3-.2,4.3.3,1.5,1.6,3.4.5,6,1.6,2,1.3,5.5,0,7.4,1.7,3.6-.4,8.2-2.4,10.3.6,2.3.2,5.1-1.2,6.5-.6,5-.7,7.8-2.6,11.7.4,3.2-.5,5.2-1.4,7.2,0,1,.4,1.5.5,2.4-1.1,1.7-.3,3.7-.5,5.5-.1,1.9-1.3,3.8-1.4,5.7,0,.9.5,1.8.5,2.6-.1,2.7-1,5-.7,7.9.4,3.5.3,8.3,0,12.4-.2,3.2-1.4,6.1-1,9.3.2,1.5.9,2.9,1,4.3.2,4.6-.3,9.3,1.2,13.6-2.3,4.4,0,9.3-1,14.6,0,.9.8,1.2,1,1.9-.2,5,2.4,8,1.9,13.6-.7,1.1-1.9,1.6-1.4,3.8-2.2,1.4-4.3,2.9-5.3,5.5-2.7.8-5.9.1-8.6.7-.9.2-1.5.9-2.4.9-2.6,0-4.9-2.2-6.9-3.1,0-1.5-.7-2.4-.7-3.8-1.5-1.2-3.1-2.1-2.6-5.3,0-.5.7-1.1.7-1.7,0-1-.6-1.9-.5-2.6.2-1.4,1.5-2.3,1.7-3.3.4-2-.9-3.5-1.7-5,.2-1.6.8-3.3.5-5-.4-1.9-2-2.7-2.1-5-.2-2.6.3-5.8-.2-9.1.5-.6.8-1.2,1.2-1.9-.3-4.7,1.6-8,1.4-12.7,0-1.4.7-2.5,1-4.1,1.1-6.9,1-14.2,1.9-21.3.2-1.4,1-2.7,1.2-4.1,1.8-11.5.2-23,1.2-34,0-.7-.5-1.1-.7-1.7.6-1.6.5-3.6-.5-4.8.5-4.5-.6-7.9-1.7-10.3,0-6-1.9-10.5-2.4-16.3-.2-1,.9-.7,1-1.4-.2-1.2-1.7-1.1-1.9-2.4-.4-1.1.7-.7.5-1.7-2.6-2.8-.9-8.3-5-9.6-.6-1.9-.9-5-2.9-6.2.9-2-1.2-2.5-1.2-4.1,0-2.6,3.2-3.8,4.3-6,2.6.3,3.9-.8,6-.2,2.1-2.6,7.8-1.6,9.8.5Z"/>
  </g>
  <g>
    <path class="st1" d="M598.5,199c-.6,2.8,1.1,3.9,1.5,5.8.3,1.4,0,2.6,1.2,3.5,0,.5-.3.8-.5,1.2.5,3.2-.7,6.4-1.3,9.4-.7.1-.7.1-1.3,0-.3.8-.2,1.1-.2,2.1-1.4.2-2.7,1.1-4,2-.2.4.5.8,0,1,0,.7-.9.6-1.2,1,.1,2.1-1.8,2.7-2.8,4-.2.2,0,.7-.2,1-.6.9-1.3.8-1.3,1.5,0,.7.4,1.2,1,1.7,2.2-.3,3.1.6,4.1,1.5,4.5-.2,4.4,4.2,7.6,5.3.1.8.8,1,1.2,1.5,0,2,1.5,3,1.7,4.8.2,2.7-1,5.3-.8,8.4-.3.5-.8.7-1.2,1.1.2,3,.3,5.2-.8,7.3,1.2,2.2.3,5.5-2.1,6-.7.7-.4,2.4-1.3,2.8-.9,0-.9-.9-1.7-1-.6-1.8-1.8-2.9-2.5-4.6-.2-.6,0-1,0-1.7-.1-1.2-1.1-2.6-1.2-3.8,0-1.4,1.1-2.9,1-4.6,0-.5-.4-1-.5-1.7-.1-1.2.5-2.6.3-3.5-.3-1.3-2.2-1.1-2.1-3-.6-.2-1.2-.4-1.8-.5-.9-1.3-3.2-2.8-5.1-2.8-1.3,0-2,1.5-3.3,1-.7,0-.7.8-1.2,1-.7,0-.9-.3-1.7-.2-.8.5-.6,1.9-1.2,2.6-.9.5-2.7.1-2.6,1.7-.5.1-.3-.3-.7-.3-.3,1.2-1,2.8-1.5,3.3,0,.7.6.7.7,1.3-.5,1.9-2.3,2.4-3.8,3.3,0,.7,0,1.4-.2,1.8-.2.4-1,.3-1.3.5-.3,1.2-.2,2.6-1.5,2.8.6,1,.2,2.3-.3,3-1.5-.5-2.2,1-3,1.8.8,2.5-1.4,3-2,4.6,1.1,2.8-2,2.6-2.8,4,.3.5.7,1.1.3,1.8-2.1,0-2,2.1-2.6,3.5-.7.1-1-.2-1.2-.7-.5.2-.6.8-1.2,1-.6,0-.8-.3-1.5-.2-.1-1.7-2.3-1.2-2.5-2.8-.5,0-.6.4-1.2.3-.4-.5-.7-1-1.5-1.2-.4-1-.1-2.2.3-3.5-2-1.8-.8-6.7-3.8-7.4-.2-.9-.5-1.8-1.3-2.1.8-1.8-.4-3.4.7-5-.2-.6-1-.5-.8-1.5,1.8-1.3,3.2-2.9,3.6-5.6.3,0,.5-.4,1-.3.2-2.8,2-4,3.1-5.8.1-1-.7-.9-.5-2,.8-1.6,4-1.5,3.1-4.1.5-1.2,1.9-1.5,1.6-3.5.4,0,.5-.3,1-.2.2-.7.6-1.1.7-2,1.4-.7,1.7-2.5,3.1-3.1.2-.3-.1-1.4,0-2.1.9-.9,1.8-1.9,3.3-2.3,0-.8-.3-1.4-.2-2.3,1.4,0,1.6-1.1,2.8-1.3.4-1.1,0-1.3.3-2.3,2.8-.4,3.7-2.7,4.6-5,.6,0,1.3.1,1.6-.2-.4-1.3.7-3.3,2.6-3.3.2-1.1-.8-1.1-.5-2.3,1.2-.5,2.7-.8,3.5-1.8.4-.5.4-1.2.7-1.7,1.5-2.2,4.9-3.2,6.3-6,1.4-.3,1.8-1.5,3-2,.1-.5.2-1.1.5-1.5,1.9-.4,3-1.5,4.1-2.6,1.6.2,3.3-.5,4.6.5.6,1.2,1.1,2.4,2.6,2.6Z"/>
    <g>
      <path class="st0" d="M666.3,203.8c-1.7-3.3-4-5.6-6.3-7.4-1.4,0-2.6-.6-3.6-1-1.3-.6-2-.8-3.1-.7h0c-.7.2-4.2,1.5-4.8,1.9-1.4,1-2,4.4-.6,7.4l.3.7v.7c-.2.6-.4,1.1-.5,1.5,1.1,2,.8,4.3.6,6.2-.1,1.2-.3,2.2-.2,3.2,0,.1.1.3.2.5.3.6.7,1.5.7,2.5,0,.8-.2,1.5-.3,2,0,.2-.1.3-.1.5,0,.1.2.4.4.8.3.7.8,1.6.8,2.7,0,1.1-.1,2.1-.3,2.8-.1.5-.2,1-.2,1.4,0,.1,0,.2.3.7.4.7.9,1.7.9,3.3,0,1.3-.5,2.2-1,2.7.6,3.9.8,8.3,1,11.7.6,16.1-.2,33.8-.8,49.5l-.2,4.4-.4.5c-.6,1-.6,4-.6,6.2,0,2.4,0,4.7-.4,6.6,1,1.7.9,3.5.9,5,0,.7,0,1.4,0,2.2,0,.1.3.6.4.9.3.5.5,1,.7,1.6.6,2.1,1.1,4.5,1.5,6.8.2,1.2.5,2.4.7,3.5.7.5,1.2,1.1,1.6,1.6.2.2.4.4.5.5,0-.1.3-.3.5-.4,1-.6,2.7-1.6,4.8-1.2.2-.3.4-.6.6-.9.4-.6.8-1.2,1.2-1.8.6-.7,1.3-1.3,1.9-1.7.4-.3.8-.6.9-.7.7-1,.7-2,.7-4,0-.7,0-1.6,0-2.5,0-1,.2-2,.4-2.9.2-.8.3-1.5.3-2,0-.7-.3-1.6-.6-2.5-.4-1.2-.8-2.5-.8-3.9,0-1.3,0-2.7.2-4.2.1-1.2.3-2.4.3-3.6s0-2-.1-3c-.2-2.3-.3-4.5.4-6.3-.4-.8-.9-1.7-.8-3.1.2-2.4.4-4.7.7-7.1.3-2.9.6-5.7.8-8.6,0-1.7.2-2.8.4-3.9.1-.6.2-1.3.3-2.1.2-1.6-.2-3.3-.5-5-.3-1.7-.7-3.4-.7-5.4,0-1.1.3-2.1.6-3,.2-.5.3-1,.4-1.5.6-4.3.4-10.7,0-15.2,0-.2,0-.4-.2-.6-.2-.6-.4-1.4-.3-2.3,0-1,.3-1.9.6-2.7.2-.6.4-1.3.4-1.7,0-2.5,0-4.9-.2-7.4-.2-5.3-.5-10.8.8-16.2-.6-1.5-1.2-3.4-1.1-6.2Z"/>
      <path class="st0" d="M633.5,228.9c-2.1.3-3.2-2-5.3-2.4-.7-.1-1.4.3-2.1.2-3,0-6.3-1-9,0-3-2.1-5.1.9-6,3.1-2.3.1-2.7,2.3-3.5,4.1-6.5,2.2-.6,8.7.9,12.3,2.4.7,4.1,2.1,6.5,2.9,4.4-1.2,9-1.4,13.6-3.1,1.3-2.7,5.4-2.5,6.5-5.5.8.5,1.3,0,1.9-.5.6-2.7.7-5,0-7.7-2.3,0-2.4-2.1-3.5-3.4Z"/>
      <path class="st0" d="M703.7,271.4c0-1.9,0-3-.9-3.7l-1-.8.8-.9c.8-1,.6-1.7-.3-3.3-.5-1-1.1-2-1.1-3.1,0-.7.3-1.3.5-1.8.1-.4.3-.7.3-.9-.3-.5-.7-1.1-.7-1.9v-.4s.2-.3.2-.3c.4-.5.3-.7-.2-1.7-.1-.2-.2-.5-.3-.7l-.2-.4v-.4c.2-.3.4-.6.5-.7,0,0,0-.1,0-.1-.2-.9-.1-1.8,0-2.5,0-.4.1-.7,0-1.1,0-1.4-.2-2.8-.4-4.2-.4-3.3-.8-6.7.4-9.9-.1-1.1,0-2.1,0-3,0-.9,0-1.8,0-2.8v-.6c0,0,.3-.4.3-.4.5-.5.3-2,.2-3.3,0-.8-.2-1.5-.2-2.1v-.6s.6-.3.6-.3c0,0,.3-.2.4-.5-.9-1.4,0-2.9.5-3.7,0,0,0,0,0-.1,0-.1-.2-.3-.2-.4-.2-.4-.5-.8-.7-1.4l-.2-.6.4-.5c.3-.4.6-.5.8-.7,0,0,0,0,0,0,0-.8,0-1.5,0-2.3,0-1.4,0-3,.5-4.8-.4-.5-.7-1-.9-1.7l-.2-.8.7-.5c.2-.2.5-.4.7-.7.2-.3.5-.6.8-.8v-.2c-.5-1.9-1.1-4.2-.3-6.3-.5-.3-1-.7-1.1-1.6v-.7c0,0,.4-.4.4-.4.8-.6.6-1.5,0-3.1,0,0,0,0,0,0-.6,0-1.8-.2-2.2-1.4-.1-1.1.2-1.6.4-2,0-.2.1-.2.1-.3-1-1-2.1-1.8-3.6-2.1l-1.1-.2v-1.1c.2-.7,0-.9-.5-1.4,0,0-.2-.2-.2-.2-1.2.1-2.1-.3-2.8-.6-.9-.4-1.2-.5-1.9,0l-.7.5-.7-.6c-1.4-1.2-2.4-.6-4.5,1.1-.5.4-1.1.9-1.6,1.2,0,.7-.3,1.3-.5,1.7-.3.6-.4.9-.1,1.4l.4.8-.7.6c-.5.4-1.1.4-1.6.5,0,0-.1,0-.2,0,0,0,0,0,0,.1.5.3,1.1.7,1.3,1.5.2,1.6-.5,2.4-1.2,2.9,0,.6-.2,1.2-.3,1.6,0,.3-.2.5-.2.7.8.3,1.3.8,1.6,1.2l.4.5-.2.6c-.8,2.5-.7,3.5,0,3.8l.4.2.2.5c.6,1.7,1,3.1,1.1,4.6l.2,1.4h-1.4c0,0,0,0-.1,0,1.4.7,2.1,2.2,2.1,4.4.7.5,1.2,1.4,1.3,2.4,0,1-.2,1.8-.8,2.5.2.9.2,1.8.1,2.6,0,1.2,0,2.2.6,3.1l.6.9-.8.7c-.9.8-1.3,1.5-1.2,2.3,0,.3.3.7.5,1.1.3.5.7,1,.9,1.7.4,1.4.2,2.8,0,4.1-.1.9-.2,1.8-.2,2.6,0,.5.1,1.1.2,1.6.2,1.6.4,3.2.2,4.8,0,.6-.3,1-.5,1.3-.1.2-.2.4-.2.5.1.2.5.5.5,1.1v.5c0,0-.3.4-.3.4-.4.4-.4.6.1,1.6.4.9,1,2.1.7,3.7v.3c0,0-.3.2-.3.2,0,0-.2.2-.4.3-.1.5-.4.8-.6,1-.1.1-.2.2-.2.3.5.4,1.1.8,1.2,1.7.1,1.2-.1,2-.3,2.7-.2.7-.3,1.3-.3,2.3,0,0,.2.2.2.3.4.5,1,1.1,1,2.2v.4s-.2.3-.2.3c-.5.8-1.2,1.1-1.7,1.3-.1,0-.3.1-.3.2,0,.3,1.1,1.3,1.4,1.6l.3.3.2.6v1.7l-.5.4c-1.3.9-1.1,2.4-.8,4.8.2,1.7.5,3.5,0,5.3.5,1.2.4,2.5.3,3.6,0,.4,0,.7,0,1v.5c-.4.5-.8.8-1.1,1,0,.6.2,1,.5,1.6.3.7.7,1.6.7,2.9v.5s-.4.3-.4.3c-.1.1-.2.2-.3.2,0,.6,0,1.1,0,1.7,0,2,0,4-.7,6,.3.2.6.6.7,1.1v.2s0,.2,0,.2c-.1,1.1,0,1.8.2,2.4l.2.4v.4c-.2.8-.8,1.1-1.1,1.3,0,.2,0,.5,0,.7,0,1.1,0,1.8.2,2.7l.2.8-.7.5c-.6.4-.9,1.4-1.3,2.4-.2.7-.5,1.5-.9,2.1.3,2-.2,3.5-.6,4.7-.4,1.3-.8,2.4-.4,4.1l.2.7-.5.5c-.3.3-.4.7-.5,1.2-.1.6-.3,1.4-1,2.2,0,.4.2.8.3,1.2.1.6.3,1.1.4,1.7l.2,1.2h-1v.2c0,.3,0,.6-.1.9l-.2.5c0,.2,0,.3,0,.5,0,.5,0,1.5.3,1.6l.3.3v.4c.3,1.1,0,1.9-.4,2.4-.1.2-.2.4-.2.5s.1.4.3.6c.3.5.7,1.1.6,2l.2.2c2.7,2.1,5.2,4.1,9,4.2,0-.2.3-.6.7-.9l.4-.3h.5c1.7.5,3.1.4,3.8,0,.4-.3.7-.7.7-1.4v-.9c.1,0,1-.1,1-.1.2,0,.4-.1.7-.5.2-.2.4-.5.7-.7v-.3c0-1.9,0-4,1.2-5.2-.1-1.1.4-1.8.8-2.2,0,0,.1-.2.2-.3-.6-.8-1-2-.9-3,0-.9.4-1.6,1-2.1l.8-.7v-1.4s.3-.3.3-.3c.3-.3.6-.6,1-.8.5-.4.8-.6.9-1,0-.3,0-.6-.1-1.1-.1-.5-.3-1-.2-1.6,0-.9.2-1.9.4-2.8.3-1.8.7-3.6,0-4.9l-.4-.8.6-.6c.2-.2.4-.5.1-1.3l-.2-.6.3-.5c.3-.5.8-1.2.7-1.4l-.8-.8.8-.8c.2-.2.3-.4.2-.9-1,0-1.3-.6-1.5-1.1v-.4c0,0,.1-.4.1-.4.2-.4.3-.7.4-1.2,0-.3.1-.7.3-1.2,0-.4.3-.7.5-.8-.2-.3-.3-.7-.3-1.2,0-.5,0-1,.1-1.5,0-.3.1-.8,0-.9,0,0-.1-.2-.2-.4-.3-.3-.7-.9-.7-1.7,0-.8.3-1.5.6-2.2.6-1.3.7-1.7.2-2.3l-.7-.7.6-.8c.7-.8.5-2.6.3-4.3-.1-1.2-.3-2.4-.2-3.4.2-.7.6-1.1.9-1.2-.2-.5-.4-1-.3-1.9-1-1.3-.9-3-.9-4.6Z"/>
    </g>
  </g>
  <path class="st1" d="M56.6,225.4c.3.8.4,1.8.9,2.4,2.9.9,3.1,5.1,4.1,7.5-.4,1.8-1.8,2.3-1.5,5.1-1.7,1.3-2.2,4.3-2.9,7-.1.8.3.8.5,1,0,.6-.5.6-.7.2-.3,2.8.6,3.2,0,5.6-.2.4-1,0-1.2.5.4,2.5.9,4.8,2.2,6,.5-1.4,1.8-2.8,3.1-1.7,1.4-.9,3.3-3.2,4.4-.5,1,.3,1.1-.6,1.7-.7.8,0,1.4,1,2.2,1,.6,0,1.2-.9,1.9-1,1.6-.1,2.9,1.9,4.1,1.9,1.5,0,3.6-3.3,4.4.2.7-.5.6-2.1,1-2.9,1.2.4,2.4,2,3.6,1,2.1,1.1,4.5,2.8,6.8,2.2,2.2,2.1,5.9,2,7.9,4.3,1,.3.8-1.1,1.9-.7,1.2,4,3.9,7.1,2.4,12.8-.8.5-1.3,1.5-1.7,2.7-2.1.2-3.2,2.8-5.1,2.4-.7.3-1,1.4-1.7,1.7-.9,0-1.4-.6-2.2-.7-1.4,1.4-3.8.3-5.6.5-.9.1-1.6.6-2.4.5-1.7-.2-3.2-2.4-5.5-1.5-.8.2-.6-1-1.4-1-.6-.3-.3.8-.7,1-.8-.6-1.6-.4-2.6-.2-2.1-2.6-5.2,2-7.5-.7-.9.5-1.4.7-2.6.5-.6.2-.8,1-1,1.7-.8-.2-1.6-.4-2-1.2-.8.1-1.4.4-1.9,1,0,.7,0,1.6-.2,1.9-.8.1-.8-.9-1.4-1-.6,0-.6.9-1.2,1-1.2-1-2.7,0-3.2,1.5-2.7,1.1-6,.9-7.2-1.9-2.6,1.2-2.4-3.4-4.6-3.6-.9-4.4-3.5-6.4-3.6-11.8.2-.6.9-.5.9-1.4-.3-1.2-.6-2.4-1.4-2.9.7-2.7,1-6,1.7-8.7,0-1.1-.8-.8-1.2-1.2.2-1.7-.3-2.2-.5-3.4,1.3-1.4,1-5,2.4-6.3-.9-3.4.4-6.2-.9-10.1-.9-1.2-2.2-1.9-2.9-3.4,0-4.2,2.3-5.3,2.7-8.9,1.2-.1,1.6-1.4,2.4-2.2,2.4-.9,5-.7,6.8.7.5.2.6-.2,1-.2.5.4,1,.8,1.7,1,.5.1.7-.3.9-.7,2.7-.2,2.5,3.7,4.8,4.1Z"/>
  <path class="st1" d="M175.2,222.6c0-1.8-1-4-1.3-6-.4-2.4-.4-3.6-1.1-5.4-1.7-4.9-4.2-5.6-7.7-7.9-1.5.5-2.4-1.2-3.8-1.5-1-.2-2,.4-3,.2-1.1-.2-1.7-1-2.8-1.1-.4,0-.7.6-1.1.6-1.1.2-1.9-.5-3-.2-2.4,1-3.9,1.8-4.9,4.3-.5,1.2-1.4,3.1-.9,4.9.2.9,1.4,1.4,1.7,2.4.2.6-.3,1.3-.2,1.7.2,1,1.6.7,1.3,1.7,0,.9-1.1,1.5-.6,2.1,1.2,2.4,3.1,4.4,3.2,7.1,0,.8-.5,1.7-.4,2.6.2,1.4,1,2.9,1.4,4.7-2.4-.1-3.8-1.1-5.2-1.9-2.9,1.5-6.6-1-8.7-1.1-1.8,0-4.9,1.5-6.8,1.7-5.6.7-11.5-.7-15.5,0-2.7.4-3.4,2.7-4.7,3.8-.4,3.1-1.3,4.1-.9,7.1.4.5.5,1.2.9,1.7-2,4.4,7.1,3.7,5.9,7.5,1.4.4,2.6.9,3.1,1.9,2.3.6,4.7,1,6.5,1.9,3,0,6.1,0,8.4.4,1.2-.2,2.1-.7,3.1-1.1.4.9,2.4.8,3.7,1.1,2.4-1.1,4.5-2.4,5.9-4.1,1.9.5,3.5.3,4.9-.2-.2,3.6-.3,7.1,0,10.2-1.3,11.9-1,24.4-.4,36.4.1,3.5.6,7.1.2,10.5,0,.7-.5,1.2-.6,1.9-.6,3.9.7,8.1-.8,11.8.2,2.7,1.8,6.7.8,9,3.1,2.4,4.9,6.1,7.7,8.8,1.6-.7,4.4.1,6-.9.6-.4.9-1.7,1.5-2.8.7-1.2,2.6-2.7,3.2-3.6,1.8-2.7.6-4.7,1.1-8.1.1-.8.6-1.4.6-2.1,0-.6-.5-1.3-.6-2.1-.4-2.5.4-4.4-1.1-5.3-1-12.7-2.6-27.9-1.5-42.2.3-.8.8-1.3,1.1-2.1.1-.8-.4-1-.2-1.9,1.1-3,.7-6.5,1.1-9.8.3-2.5.5-5.5,1.3-7.7.3-.8.9-1.4,1.1-2.1.9-4.2.2-8.2,2.1-11.8,0-.9-.8-1.1-.6-2.1.5-3.4.7-8.9.6-12.8Z"/>
  <path class="st1" d="M215.7,250.3c-1.4-1.5-4.1-1.9-4.7-4.2-.3-.5-.8-.8-1.3-1.1,0-.3.2-.4.1-.8-1.3-1.4-.6-4.3-1.6-6.1,0-.7.5-.7.4-1.5,0-.4-.5-.3-.5-.6-.2-3.1,2.5-5.2,3.2-7.7,1.3-.7,2.1-1.9,3.6-2.4.4-.9,1-1.4,1.6-2,1.9-.4,3.7-1.7,4.9-3,1.3.1,1.6-1.2,2.4-1.3.1,0,0-.3.1-.4,1.4,0,2.9-.5,4.3-1.3,1-.6,3.2-2,4.5-2.1.6,0,1.6.4,2-.2.4,0,.4.3.9.2.4,0,.3-.5.6-.5,1.8.4,3.4.8,5.3,0,.5.5,1.1.8,1.4,1.4,1.5.1,1.7,1.6,2.9,2,0,.5.3.7.2,1.3.1.3.5.4.9.2,0,.3,0,.4-.1.5.7.5,1.3,1.1,1.5,2,1.6.8,3.5,1.1,4.9,2,.5,0,.7-.2,1.2-.2.2.6.8.8.8,1.6.4.1.3-.3.7-.2,1,1,2.7,2,4.4,1.9.1.4-.2.4-.2.8.6.3,1.4.4,1.8.8,0,.3.2.4.1.7.3.3.7.2,1,.4,1,.7,1.1,2,1.5,3.2.4,1.1,1.8,2.1,1.4,3.4,1.4,1.7,0,4.4-1.5,5.1.7,1.3-.9,2-.8,3-.2.3-.4-.3-.7-.2-.7.1-.9.7-1.3,1.2-1.1,0-1.5,1.2-2.8,1.3-.3-.2-.4-.5-1-.4-.8.6-2.1.8-2.6,1.8-.8-.3-2.1,0-2.3.5-.5-.3-1.3.2-1.7.5-1.9-.7-3.7.8-5.6,1.1-1.4-.1-3.4,0-4.6.8-.9-.3-1.5-.1-2.3.2-1.9-.7-3.9,0-5.6-.1-.5,0-.5.5-1,.5-2-.8-4.1,0-6.2-.2-.6,0-1.2-.5-1.8-.5-.4,0-.8.2-1.3.2-.6,0-1.3-.6-1.9-.6-.4,0-.9.3-1.3-.2-.3,0-.5.2-.9.2-1.1-.4-1.9-1.3-3.2-1.1ZM243.3,230.2c-.4,0-.5.1-1.1.2-.3-.1-.3-.5-.6-.5,0,.4-.4.5-.8.6-.1.4.3.3.2.6-.3.3-.6.7-1.1.8-.4-.2-.7-.5-1.2-.6-.3.2-.5.5-.9.6-1-.7-2.2-.2-3.1.3-.5-.1-.8-.4-1.2-.6-1.2.8-2.8-1-3.8.1-.2,0-.2-.3-.5-.2-1.1.8-1.9,1.4-3.6,1.2-.5,1.2-2.1,1.3-3.1,2,0,1.1-1.2,1.4-1.4,2.6h-.5c-.2,1.1-.7,1.9-1.3,2.6,0,.7.2,2,.6,2.6,1.3,0,1.7,1.2,3.1.8.3.2.6.4,1.1.4,1.2-.6,2.2.5,3.4.5.5,0,1.1-.5,1.7-.5.3,0,.7.2,1,.2.6,0,1.3,0,2-.1,1.5,0,3.1,0,4.3-.1.9-.6,1.8,0,2.7-.1.8-.2,2-.7,3-.2,1.1-.8,2.8-1,4.4-1.2.2-.8,1.3-.6,1.7-1.2.2,0,.4.2.7.1.6-.9,1.8-1.2,2.9-1.6.8-1.1.8-2.7,1.2-4.2-.6-.6-.7-1.6-1-2.6-.2,0-.5.2-.8,0,0-.3.2-.3.1-.6-.7-.8-1.7-1.3-2.4-2.1-1.4-.3-2.3-.5-3.6-.4-.4.1.4.4,0,.5-.8-.3-1.7-.5-2.5-1-.4.4.3.6.1,1.2Z"/>
  <path class="st1" d="M239.3,264.2c.1,2.9-1.3,4.4-2.1,6.4,0,.5-.7.4-.8.7.2,5.5-1.2,9.5.5,13.6-1.2,2.2-1,4.4-1.2,7.3.2.6.8.7.8,1.4,0,.5-.5.7-.7,1.2-.2.9,0,1.8.1,2.5.8.5,1.4-.3,2.3-.5,1.5-.3,2.6.4,3.7.9,2.1-.5,4.9-.5,6.4.4,1.2-.9,2.5-.2,3.6.4,2.4-1.6,6.3.2,9.1-.9.3.2.4.6.5.9,3.5-.6,4.7,1.1,7.2,1.5,1,1.8,3.7,2,4.7,3.9.8-.2.3-.7,1.1-.7,1.6,0,1,2.6-.7,2,0,.9,1.2.3,1.7.4.5.3,1.6.8,1.3,1.4-.3.6-1.7.8-2.4.5-.7.5-1.6.8-1.9,1.6-2.8,0-5.6-1.4-8.4-.9-.6-.1-.9-.4-1.3-.6-1.7,0-3.1-.4-5.3-.6-1.1-.1-2-.7-3.1-.9-.6,0-1.1,0-1.6,0-1.4-.2-2.9-.8-4.4-.9-1.3,0-2.6.3-3.9.3-3.3-.2-6.7-1.2-9.9-1.6-2.3.8-4-.2-6.5-.3-.4,0-.8.2-1.2.3-.9,0-2-.3-2.7-.3-.5,0-.9.5-1.3.5-.8,0-1.5-.4-2.3-.4-.9,0-1.7,1-2.8.6-1.4,1-2.5,2.2-3.7,3.3-.5,0-.7-.3-1.2-.2-1,2.6-5.9,1.6-8.4,1.5-1.1-.8-1.3-2.4-3.2-2.4-.4-1-1.9-1.4-2.3-2.6-.3-1.2.5-2.9-1.1-3.5,1-2.1,4.1-2.3,5.1-4.5.5,0,.9,0,1.2.1,1.3-1,3.7-.9,5.5-1.5,2.5.8,5,.5,7.9,0,.6,0,.7.4,1.2.4,2.2-.5,4.3-1,5.5-2.5,1.4-.2,2.3-.9,3.2-1.6-.2-1.2,0-2.9-.7-3.6,0-1.5.3-2.7-.4-3.6.2-2.2,0-4.3.1-6.4,0-1-.4-1.9-.4-2.9,0-1.5.7-2.9.7-4.2,0-.8-.6-1.7.1-2.5-.8-.3-.9-.4-1.2-1.1-.2-.6-.9-1.1-.9-1.5,0-.5.6-.8.8-1.3.6-1.3,1.2-3.6,2.4-4,.5,0,.7.3,1.2.4.3-.1.4-.6.8-.6,2.5,0,4.4,1.1,6.5,1.8.4,1.5,1.8,2.1,2.7,3.3Z"/>
  <path class="st1" d="M301,253.4c2.2.3,3.4-.4,4.4-1.2.9,1.5,2.3,3,4.1,3.5,1.3.4,3.2,0,5,.4.5,0,1.1.5,1.6.5.4,0,.8-.4,1.2-.4,1.9,0,2.7.7,4.2,1.2,1.4.5,2.7.6,2.8,2.5,1.4,1.2,3,2.1,4.4,3.2.6.7.2,1.5.7,2.5.7,1.1,1.9,1.2,1.9,2.5,0,.8-.4,1.4-1.1,2.1h-1.4c-.7,1.4-1.1,3.3-2.5,4.1-5.4.5-10.9-.3-15.6,1.4-1.6,1.2-2.5,2.9-3.9,4.2-.6.3-1.2-.6-2.3-.4-.8,1.3-.1,4.2-1.8,5.1.6,2.6-1.4,4.4,0,6.7,0,.8-.4,1.2-.4,1.9.2,1,.6,1.7.5,2.7,0,.5-.8,1.1-.9,1.8-.1.6.1,1.2,0,1.6-.2.6-.8.8-1.1,1.4-.1.4.1,1.4,0,2.3-.2,1.2-.5,3.2-1.1,4.4-.5,3.4.8,8.8-1.6,11.3-.1.8.9.5.7,1.4-2,3.6-3.1,8-9.4,7.2-.4-.9-1.3-.7-1.9-1.2-.3-.3-.2-.8-.5-1.2-.3-.4-1.1-.6-1.2-.9-1-1.4-1.4-3.9-1.6-5.8-.1-1.2.4-2.3.4-3.5,0-.9-.7-1.7-.9-2.7-.3-1.5.3-2.9.5-4.8.3-2.5-.6-5-.3-7.4.2-2.3,1.6-4.1,1.4-6.5-.1-1.6-1.2-3.8.7-5.1-1.2-1.3-2.5-3.4,0-4.2.5-3.2-.9-7.3,1.1-9.2-1.5-1.1-1.7-3-.4-4.4-1.7-3.8-.2-9.3-.9-13.1,0-.7.9-.7.9-1.4.1-1-.5-1.1-.7-1.8.1-2.6.3-5.2-.9-6.9,0-.5-.1-1.2.2-1.4-2.4-3-.5-10.2-3.9-12.2,0-2.7-.8-4.5-2.1-5.8-1,0-1.2.7-2.1.7.3-3-.8-4.4-1.4-6.2,0-1.4,1.4-1.6,1.8-2.7,0-2,.4-3.6,1.1-5,4,0,5.2-3.6,9-3.2.9-1.7,2.8-1.1,5.3-1.2,1.9-.1,3.8-1.4,5.1-.4,1.4,1.6,2.9,3.1,3.9,5.1.2.3,1,0,1.2.4,1.1,3,2.6,6.4,1.6,9.7-1.9,1.3-2.6,4-3.5,6.5-.7,2-1.6,3.2-1.4,6.2.3,5.1-.5,11.4.9,15.6Z"/>
  <g>
    <path class="st2" d="M748.1,121.8c-1.5-1.9.2-2.6.8-5.7-.8-.8-2-1.5-2.4-2.5-.7-1.9-1.1-3.9-1.1-5.9-.1-8.9-.1-17.8,0-26.7,0-4.3.4-8.7,1-12.9.2-1.9.9-4.1,2-5.6,2.4-3.3,2.9-6.5.3-9.8-3-3.9-2-7.9-.8-11.9.3-1,1.5-2.1,2.5-2.4,3.9-1.2,7.9-3,11.8-3,9.2-.2,18.4.5,27.6,1,1.2,0,2.6.8,3.5,1.6,2.2,2,9.3.5,9.3.5.3-1.1,1.9-2.6,3-2.7,9.9-1.1,19.7-.9,29.2,2.9,2.9,1.2,3.8,3.3,3.8,6.5,0,3.5,1,7,1.1,10.6.3,7.7.6,15.4.4,23,0,2.4.4,4.6-.9,6.8-1.6,2.7-3.1,5,.7,7.1.9.5-.3,2.4-.3,3.5,0,10.2-.2,20.3-.3,30.5,0,5.3-3.6,7.4-7.5,8.3-4.3,1-8.8,1.4-13.2,1.5-10.3.2-20.5.1-30.8.2-2.7,0-5.7,1.4-8.2.6-6.6-2.2-13.4.3-20-1.4-1.9-.5-3.9-1.3-5.6-2.3-.8-.5-1.8-2.2-1.5-2.9.4-1-1.6-2.7-.6-3.2,0,0-2-3.7-3.5-5.6h0Z"/>
    <path class="st0" d="M804,91.2s3.9-2.1,4.3-2.7c.4-.6,0-1.3,1.5-2.1,1.4-.8,2.6-2.3,2.6-2.3,0,0,1.2.3,1.4.7.1.4.9-.4.9-.8,0-.4,1.7-1.8,2.7-2.8.9-1,1-.9,1.7-.6.7.3,1.3.9,1.2,1.4-.2.5.5.6.8.1.3-.5,1.3-1.1,1.9-1.4.5-.3.6.2.9.6.3.4.9,1.3,1.6,1.1.6-.1,1.3.2-.1,1.2-1.4,1-3.1,1.4-4,2-.9.5-3.1,1.6-3.1,1.6,0,0-1.1,0-1.6.1-.4,0-1.6,0-1.6,0,0,0-1.6,1.3-1.8,2.2-.2.9-.8,1-1.7.6,0,0-.8,1.5-1.4,1.4-.5-.1-1.4-1-1.4-1,0,0-2.2,1.8-2.4,2.1-.2.3-.7,2-1.4,1.6-.7-.4-1.1-1.9-1.1-1.9l.3-1h0Z"/>
    <path class="st1" d="M779,55.4c-2.2,3.7-4.3,7.5-6.1,11.3-1.2,2.4-2.4,5-3.2,7.6-1,3.2-2.3,6-3.9,9-1.3,2.4-2.4,4.7-3.2,7.4-1,3.4-2.1,6.7-3.4,10-1.2,2.9-2.5,5.7-4,8.4l-.6,1-3.6-1.7.6-1c1.5-2.6,2.7-5.3,3.8-8,1.3-3.2,2.4-6.4,3.3-9.7.8-2.8,2-5.3,3.4-8,1.4-2.8,2.7-5.4,3.6-8.4.8-2.7,2.1-5.4,3.3-8,1.9-3.9,4.1-7.9,6.3-11.7l.6-1,3.6,1.8-.6,1h0ZM782,124.9h0c.7,2.5-4.6,3.2-6.2,3.4-1,.1-2.1.3-3.1.6-.7.2-1.4.3-2.1.4-3.2.5-4.9-.8-5.4-3.7-.2-1.4.3-2.8,1.1-3.9,1-1.5,2.5-2.7,4-3.7,1.6-1,3.5-1.7,5.4-2,1.7-.2,3.4,0,4.8.7,3.6,2,3,5.4,1.4,8.2h0ZM834.8,77.4c.6.4,1.3,1,1.6,1.4l.8.9-3.3,2.2-.7-.9s0,0-.1-.1c-1.6,2.7-3.5,5.3-5.8,7.6-3.4,3.4-7.5,6.2-12,8.2-4,1.8-10.1,3.6-14.7,3.5-1.1,0-2.2-.1-3.2-.4-1-.3-2-.7-2.6-1.5-.8-.7-2-1.6-2.9-2.3-1.4-1.1-2.9-2.2-4.4-3.3-1.7-1.2-2.6-2.9-3.2-4.7-.6-1.7-.8-3.6-1-5.4-.3-3.4-.9-6.9-1.5-10.2-.2-1.4-.5-2.7-.8-4.1-.1-.6-.3-1.6-.6-2.2-1-2.3-.8-6.6-.4-9,.5-2.7,1.5-5.5,3.3-7.8.4-.6.9-1.1,1.3-1.7.8-1.1,1.5-2.2,3-2.6,1.1-.3,2.4-.1,3.6,0,1.8.2,3.6.3,5.4.3.8,0,1.7,0,2.6.2v-2.1c0,0,1.2,0,1.2,0,6.8-.2,13.7.4,19.9,3,5.2,2.1,9.2,5.3,12.7,9.4,3.9,4.4,4.8,10.3,3.8,15.8-.3,1.9-.9,3.9-1.7,5.7h0ZM804.5,47.3c1,.5,1.9,1.1,2.7,1.9.9.9,1.9,2.4,2.1,3.7v1.1c.1,0-3.9.5-3.9.5l-.2-1.2c-.1-.7-.8-1.4-1.3-1.9-1.9-1.7-5.2-2.1-7.7-2.2-1.9,0-3.8-.2-5.6-.4-.3,0-1.4-.2-1.9-.1-.2.2-.7.9-.8,1.1-.4.6-.9,1.2-1.3,1.8-1.4,1.8-2.2,4.1-2.6,6.2-.3,1.6-.6,5.4.1,7,.4.8.6,1.9.8,2.8.3,1.4.6,2.8.9,4.3.6,3.4,1.3,7.1,1.6,10.5.1,1.5.3,3.2.8,4.7.3,1,.9,2.1,1.8,2.8,1.5,1.1,3.1,2.2,4.6,3.4.9.7,2.8,2,3.5,2.8.1.1.5.2.6.2.6.2,1.4.2,2,.2,3.9,0,9.4-1.6,12.9-3.2,4.1-1.8,7.7-4.3,10.8-7.4,2.2-2.2,4.1-4.8,5.6-7.5-10.3-7.5-20.8-14.9-31.2-22.2l-1-.7,2.5-2.9,1,.7c5.9,4.1,11.8,8.3,17.6,12.5,4.2,3,8.4,6,12.6,9.1.4-1.2.8-2.5,1-3.8.8-4.4.2-9.3-3-12.9-3.1-3.5-6.6-6.4-11.1-8.3-4.3-1.8-9.1-2.5-13.9-2.6h0ZM777.6,124.4c1-1.2,2.5-3.6.9-4.5-.6-.3-1.4-.3-2.1-.2-1.3.2-2.6.8-3.7,1.4-1.1.6-2.2,1.5-2.8,2.5-.2.4-.6,1-.5,1.4,0,.1.1.6.2.7.1,0,.4,0,.5,0,.6,0,1.1-.2,1.7-.4,1.2-.3,2.3-.5,3.6-.7.7,0,1.5-.2,2.3-.2h0Z"/>
  </g>
  <g>
    <path class="st3" d="M962.6,104.4v1.8c.1-.6.1-1.1,0-1.8Z"/>
    <path class="st0" d="M917.1,41.8c.4.2.9.3,1.3.4.2,0,.4,0,.5.1h.3c0,0,.5-.2.5-.2.2,0,.4-.2.6-.3.2-.1.3-.2.5-.3.2-.1.3-.3.5-.4.5-.3,1-.8,1.1-1.4.1-.5,0-1-.2-1.4-.6-1-1.8-1.5-2.8-1.2-1.1.3-1.9.7-2.5,1.1-.7.4-1.1,1.1-1,1.8,0,.7.5,1.3,1.3,1.7Z"/>
    <path class="st0" d="M911.8,41.3l.4-1.1c.2-.5.4-1,.5-1.5,0-.2.3-.8,0-1.4-.3-.6-.9-.7-1.1-.8-.6-.1-1.2-.3-1.9-.3-1.2-.1-2.2.4-2.9,1.5-.7,1-.1,2,.2,2.7v.2c.3.4.8.6,1,.6,0,0,0,0,.1,0l.9.3v-.4c.4.2.8.3,1.2.2.2,0,.4,0,.6,0h1ZM909.4,38.9h0c0,.1,0,.1-.1.2,0-.2,0-.3,0-.3h0c.2,0,.4-.1.6-.1s0,0,0,0c-.1,0-.3.1-.4.2Z"/>
    <path class="st0" d="M893.7,111.7c0-.7,0-1.3,0-2,0-.3,0-.8-.3-1.1l-.2-.2c-.4-.4-.8-.9-1.4-1.2-.7-.4-1.4-.7-2.1-.9l-.6-.2c-1.4-.5-2.8-.7-4.1-.9h-.7c-.4-.2-.8,0-1.1.2-.2.2-.3.4-.3.7h-.3c-.1,0-.3,0-.4-.1-.2,0-.7-.1-1.2.2-.4.3-.5.7-.5,1.1,0,.3,0,.7-.1,1,0,.3,0,.7-.1,1v.6c-.2,1.1-.3,2.2-.4,3.3,0,.4,0,.8,0,1.3,0,.5,0,1,0,1.4-.1,1.2.6,1.6,1.2,1.9,1,.4,2,.4,2.9.5.5,0,.9,0,1.4.1,0,.3.1.5.3.7.2.3.6.4,1,.4,0,0,0,0,0,0,.5,0,1-.3,1.3-.8.6,0,1.1,0,1.7,0,.8,0,1.6,0,2.4.1.5,0,.8,0,1.1-.3.3-.3.4-.6.4-1.1,0-.2,0-.3,0-.5.1-1.1.2-2.3.3-3.4l.2-1.8h-.2ZM885.4,116.1h-.6c-.8-.1-1.6-.2-2.4-.3,0,0-.1,0-.2,0h0s0-.8,0-.8c0-.5,0-1,0-1.5h.9c.9.2,1.7.4,2.6.5-.1.7-.2,1.4-.4,2.1ZM886.8,109.4c0,.6-.2,1.2-.3,1.9,0,0,0,.3,0,.4,0,0-.3,0-.4,0l-.8-.2c-.9-.2-1.9-.4-2.9-.5,0-.3.1-.6.2-.9,0-.5.2-1.1.3-1.6,0,0,.2-.2.4-.1,1,.2,1.4,0,1.8-.9.6.1,1.2.2,1.8.3h.2c0,.5-.2,1.1-.2,1.6ZM890.9,116.5h0c-.8,0-1.6,0-2.4,0h-.4c.1-.5.2-.9.2-1.4,0-.2,0-.4,0-.6.5.1,1.1.3,1.7.4.3,0,.7,0,1-.2,0,.6-.2,1.3-.3,1.9ZM890.3,112.1c-.3,0-.6,0-.9,0-.1,0-.3,0-.4,0,.2-1,.4-2.1.6-3.1h0c.4,0,.8.2,1.2.4.4.2.4.3.4.4,0,.5,0,1,0,1.5,0,.4,0,.7,0,1.1-.3-.2-.6-.2-.9-.2Z"/>
    <path class="st0" d="M911.5,57.9c-.2.3-.3.6-.3.9l-.5.2.3.8c0,.2.1.5.4.7,1.7,1.7,3.6,2.7,5.5,3,2.1.3,4.2.5,6.3.7.9,0,1.8.2,2.6.2h.9c0,0,0-.2,0-.2.2,0,.4,0,.6,0,2.2,0,4.2-.7,5.8-1.2,1.2-.4,2.3-.9,3.4-1.4.5-.2.9-.4,1.4-.6h.1c.3-.2.6-.3.8-.5,1.4-.8,2.8-1.7,4.2-2.6.4-.3.6-.7.6-.9,0-.3,0-.7,0-.9,0-.3,0-.8-.5-1.1-.4-.3-1.1-.2-1.5,0-.3.2-.6.5-.9.7-.4.4-.9.7-1.3,1-1,.6-2.1,1.3-3.4,1.9-.4.2-.7.3-1.1.5-.4.2-.8.3-1.2.5-2.9,1.4-5.5,2.1-8,2-1.4,0-2.8-.2-4.2-.3-.8,0-1.6-.1-2.5-.2-1.8-.1-3.5-.8-5.2-2.1.4-.4.7-.8,1-1.3.7-1,1.5-2,2.5-2.8,1-.7,1.7-.9,2.6-.7.7.2,1.2.6,1.8,1.3.1.2.2.3.4.5.2.3.4.5.6.8.4.5,1.1.7,1.7.5.5-.1.9-.5,1-1,.2-1,1-1.6,1.8-2.3.4-.3.9-.5,1.5-.3.6.1,1.2.5,1.5,1.1.2.4.6,1.1,1.6,1.1,1,0,1.3-.7,1.5-1.1h0c.3-.8.7-1.2,1.1-1.3.5-.2,1,0,1.7.3.3.1.5.3.8.5l.3.2c.1.1.3.2.4.3.3.2.5.4.8.6.4.3.9.3,1.3.2.3-.1.6-.4.7-.8.2-.6-.1-1.3-.6-1.7-.9-.6-1.8-1.2-2.8-1.7-2.7-1.4-4.5-.4-5.6.8-.1,0-.2-.1-.3-.2-.3-.2-.5-.3-.8-.4-2.3-1-4.1-.8-5.5.6-.4.4-.9.9-1.3,1.3-1.1-1.3-2.7-2-4.7-2-1.5,0-2.8.8-3.7,1.5-.7.6-1.3,1.3-1.8,1.9-.6.8-1.2,1.5-1.8,2.3l-.3.4Z"/>
    <path class="st0" d="M932.1,133.8c-.2,0-.3,0-.5,0,1.1,0,2.2,0,3.1,0-.5,0-1,0-1.5,0h-1.1Z"/>
    <path class="st0" d="M901.2,127.5c0-.4,0-.7-.1-1.1l-.2-1.5c-.1-1-.2-2.1-.3-3.1,0-1.1-.2-2.2-.2-3.4,0-.8-.1-1.6-.2-2.5-.1-1.5-.2-2.9-.4-4.4,0-.8-.2-1.6-.3-2.3-.2-1.2-.3-2.4-.4-3.6-.1-1.7-.1-3.4-.1-5.1v-.8c0-1.8.3-3.5.6-5.3.2-1,.4-2,.5-3.1.1-1,.3-2.1.4-3.1.2-1.2.3-2.4.5-3.6,0-.6.1-1.2.2-1.8,0-.6,0-1.2.2-1.7,0-.8.2-1.6.3-2.4.2-1.4.4-2.8.5-4.2.1-1.7.2-3.6.2-5.7,0-2-.1-3.9-.3-5.8v-.8s0,0,.1,0c.2,0,.7,0,1-.5.3-.4.5-1.2,0-1.7-.5-.7-1.1-1.3-1.7-2l-2.7-3.2v-.2c.2-.4.3-.8.4-1.1.1-.5.2-1,.4-1.5.2-.9.4-1.7.7-2.6.3-1,.6-2,.9-3,.2-.6.4-1.2.6-1.8.2-.5,0-.9,0-1.2-.1-.2-.4-.5-.8-.7.1,0,.3,0,.5,0,1.3-.4,3.1-1.2,3.7-3.5.3-1,0-2-.6-2.8-.7-.8-1.7-1.2-2.7-1.1-1.4.2-2.7.8-3.7,1.7-.8.8-.9,1.9-.2,2.8.3.3.5.5.8.8.1.1.3.2.4.4,0,0,0,0,.1.1,0,.6.2,1,.6,1.3-.4-.1-.9-.2-1.3-.4-.8-.2-1.6-.4-2.5-.7-.6-.2-1,0-1.2.2-.2.2-.5.5-.6,1.2,0,.2,0,.4,0,.6-.4,1.6-.8,3.2-1.2,4.7l-2.3-2.2c.2-.2.5-.3.7-.5.6-.4,1.1-.8,1.7-1.1.3-.2.4-.5.5-.8,0,0,0,0,0-.1l.4-.7-.9-.5c-.2-.1-.4-.2-.7-.3,0,0-.2,0-.3,0v-.2c0-.2,0-.6-.4-.9-.3-.3-.5-.5-.8-.7-.1-.1-.3-.2-.4-.3-.8-.7-1.8-1-2.8-.9-1.1,0-2.2.7-2.9,1.6,0,0,0,0,0,0,0,0,0,0,0,0-.3-.3-.6-.7-1-1-1.1-.9-2.3-1.1-3.3-.6-1.2.6-2.2,1.5-2.9,2.6-.5-.6-1.1-1.3-1.9-1.7-2.5-1.3-4.8-1.2-6.9.5-1.3,1-2.3,2.3-3.1,3.6v.2c-.3.5-.6.9-.8,1.4-.1,0-.2,0-.4,0-.2,0-.5.2-.8.5-.4.7.1,1.5.5,1.8l.6.4c.9.6,1.8,1.2,2.8,1.7,2,1,4.3,1.4,6.8,1.2,1.4-.1,2.9-.3,4.3-.6,1.4-.3,2.8-.6,4.3-1,.3,0,.6-.2.9-.3-.3.2-.6.5-.8.7-.5.5-1.1,1-1.6,1.5l-.9,1c-.7.7-1.4,1.4-2.1,2.1-1.1,1.2-2.2,2.4-3.3,3.6-.3.3-.5.7-.5,1.1,0,.6-.1,1.2-.2,1.8,0,.7-.2,1.5-.3,2.2-.1.7-.2,1.5-.3,2.2-.2,1-.3,1.9-.4,2.9-.2,1.4-.3,2.8-.5,4.3-.1,1.1-.2,2.2-.4,3.2-.2,1.8-.2,3.5.2,5.1,0,.2,0,.4.1.5,0,.2.1.5.1.6.1,2.7.2,5.3.2,8,0,.3,0,.5,0,.8,0,.4,0,.7,0,1.1,0,.9.1,1.9.2,2.8,0,1.2.2,2.4.2,3.6,0,.8,0,1.7,0,2.6-.1,1.2-.3,2.5-.5,3.7v1c-.2.3-.2.5-.3.8v.3c-.1.4-.2.8-.3,1.2-.2.9-.4,1.8-.5,2.8-.2,1.5-.4,3.2-.5,5-.2,3-.4,5.9-.6,8.8,0,.5,0,.9,0,1.4,0,.4,0,.9,0,1.3-.2,2.2,0,4.3.4,6.1-.4,0-.8,0-1.1.1,1.8-.1,3.9-.2,6.3-.3-.4,0-.7,0-1.1,0s-.8,0-1.3,0c0-.3,0-.6-.1-.9-.1-.8-.3-1.6-.3-2.3,0-.7,0-1.5,0-2.2,0-2.8,0-5.8.3-8.6v-.8c.3-1.7.4-3.4.7-5.2.2-1.4.4-2.8.6-4.2l.3-1.6c0-.3.1-.6.2-.9,0-.5.2-1.1.3-1.6v-1.1c.3-1.2.5-2.5.5-3.8,0-1.1,0-2.2-.1-3.3,0-.6,0-1.2-.1-1.8v-.6c0-1.3-.1-2.6,0-3.8,0-2.8.1-5.8-.3-8.8,0-.4-.1-.7-.2-1.1-.1-.5-.2-1-.2-1.5,0-.9,0-1.8,0-2.9v-.7c.1-1.3.2-2.6.4-3.9.2-1.2.4-2.5.5-3.7.2-1.8.4-3.5.8-5.2.1-.5.2-1,.2-1.4,0-.2,0-.4,0-.6l1.6.4c1.1.3,2.2.5,3.2.8,2.3.5,4.6.8,7,.7.8,0,1.6,0,2.4,0,.4,0,.9,0,1.3,0,.2,0,.5,0,.7,0h5.6c0,0,0,.8,0,.8,0,.7.1,1.4.1,2.2v1.4c0,2.1,0,4.2-.1,6.3,0,1.6-.3,3.3-.5,4.9,0,.7-.2,1.5-.3,2.2l-.2,2c-.2,1.5-.3,3-.5,4.4-.1,1-.3,2.1-.5,3.1,0,.6-.2,1.2-.3,1.7-.2,1.5-.5,3.1-.7,4.6-.5,3.5-.5,7.4,0,11.9,0,.6.2,1.3.3,1.9,0,.6.2,1.2.3,1.8.2,1.4.3,2.9.4,4.3h0c0,1.1.1,2,.2,2.9,0,1.5.2,3,.3,4.5,0,.8.2,1.7.3,2.5,0,.6.2,1.2.2,1.9.2,1.7.5,3.2,1.1,4.6,0,.2.2.5.2.8,1.2,0,2.2,0,3.2,0,0-.3-.1-.7-.2-.9-.5-1.4-1.1-3.2-1.2-5ZM902.2,38c0,0,.2.2.2.6-.1.6-.3,1-.6,1.3-.2-.3-.5-.4-.8-.4s-.2,0-.3,0c-.1,0-.4-.2-.5-.4.4-.5,1.6-1.1,2.1-1.1ZM895.4,49.8c.2-.8.4-1.7.6-2.5l.4-1.6c.1-.4.2-.8.3-1.2.6.2,1.1.3,1.7.5,0,.2-.1.4-.2.5-.1.3-.3.7-.4,1-.3.8-.5,1.6-.8,2.5l-.2.7c-.2.6-.4,1.2-.5,1.8,0,.2,0,.3-.1.5-.4-.5-.8-.9-1.2-1.4.2-.2.3-.5.4-.8ZM882.4,47c-1.8.6-3.7,1-5.7,1.4-1.9.3-3.9.5-5.9,0-1.3-.3-2.5-.8-3.6-1.4,0,0,0,0,0,0,.3-.8.8-1.8,1.5-2.6,1-1.1,1.8-2,3-2.6,1-.5,3,.3,3.4,1.1l.3.6c.3.5.5,1.1.9,1.6.3.5.9.7,1.2.8.8.2,1.1-.6,1.3-1,0-.2.1-.3.1-.5v-.2c.6-1,1.1-1.9,2-2.5.3-.2.6-.4.9-.3.2,0,.4.2.6.5.1.2.2.4.3.6.2.4.4.7.7,1.1.3.4.7.6,1.1.6.6,0,1-.6,1.2-.8.4-.6.8-1.2,1.3-1.6.5-.4,1-.5,1.8.2l.3.2c.3.2.5.5.9.7,0,0,.2,0,.3.1-.3.2-.7.5-1,.7-.2.1-.4.3-.6.5-.3.3-.6.5-1.1.7-1.8.8-3.6,1.6-5.4,2.2ZM896.7,60.2c-.5,0-1,0-1.4,0-.7,0-1.5,0-2.2,0-4.5.2-8.2,0-11.5-.8-.9-.2-1.7-.4-2.6-.7h-.4c0,0,0-.1,0-.1.7-.7,1.4-1.5,2.1-2.2.7-.7,1.4-1.4,2.2-2.1l1.1-1c.7-.7,1.4-1.4,2.2-2.1.2-.2.4-.3.6-.5.2-.2.4-.3.6-.5.3-.2.6-.5.9-.8.3-.3.6-.6.9-.8l.3.2c.8.7,1.5,1.3,2.1,2,1.2,1.3,2.3,2.6,3.4,3.9l.7.8c.9,1,1.7,2,2.5,3l1.3,1.6s0,0,0,0c-.9,0-1.9.1-2.7.1Z"/>
    <path class="st0" d="M937.3,133.8s0,0,.1,0c0,0,0,0,0,0,0,0,0,0,0,0Z"/>
    <path class="st0" d="M894.1,87.9c-1.3-.2-2.6-.4-3.8-.7-.2,0-.5-.1-.7-.2-.3-.1-.6-.2-.9-.3-.9-.2-1.7-.3-2.6-.5h-.8c-.4-.2-1.2-.3-1.9.2l-.5.4.2.6c.3.9,1.1,1.4,2.1,1.3.9,0,1.6,0,2.4.3,0,1,0,2-.1,3.1-.4,0-.8,0-1.2-.1-.6,0-1.3-.1-1.9-.2-.8-.1-1.6-.3-2.4-.4,0,0,0-.1,0-.2.2-.9.4-1.8.7-2.8.3-1.1-.4-1.5-.8-1.7-.6-.2-1.4,0-1.8.8-.8,1.7-1.1,3.7-1.1,6.1v.5c0,1.4,0,2.9-.1,4.3,0,.9.3,1.5,1,1.9.5.2.9.5,1.4.6,2.6.7,5,1.1,7.3,1.3h.2c.1,0,.2,0,.4,0l1.4.2c.9.1,1.8.3,2.8.4,0,0,.2,0,.2,0,.5,0,.9-.2,1-.4.2-.2.5-.7.3-1.4,0-.2,0-.4,0-.6v-.2c0-.9,0-1.7.1-2.6,0-.4,0-.8.1-1.2,0-.4.1-.9.2-1.3.1-1.4.2-2.8.3-4.2v-1.5c.1-1-.4-1.7-1.4-1.8ZM887.1,95.4c-.1.7-.2,1.4-.4,2.1-.1.7-.3,1.4-.5,2.1-.7-.2-1.4-.3-2.1-.4-.7-.1-1.3-.3-2-.4-.3,0-.4-.1-.5-.1s0,0,0,0c0,0,0-.3,0-.6v-1c0-1,0-2,.1-3,.8,0,1.6.2,2.4.2.6,0,1.2,0,1.7.2.4,0,.9.1,1.3.2v.7ZM892.2,97.2c0,1,0,2.1-.1,3.1-1-.1-1.9-.3-3-.4.5-1.5.8-3,.9-4.4.3,0,.5.1.8.2.2,0,.4.1.6.2.3,0,.6.2.9.3v1.1ZM892.7,90.7c0,.9-.2,1.8-.2,2.8-.7-.2-1.5-.4-2.2-.6v-1.4c0-.6,0-1.1,0-1.7.5,0,1,.2,1.4.3l1,.2v.5Z"/>
    <path class="st0" d="M956.1,132.9c0-.4,0-.9,0-1.3v-.3c0-1.1,0-2.2,0-3.3,0-.5.1-1,.2-1.5,0-.3.1-.7.1-1,.1-.9.2-1.9.3-2.8l.3-2.3c0-.2,0-.4,0-.6,0,0,0,0,0,0,.2,0,.4,0,.6.1.8.1,1.7.3,2.7,0,.2,0,.4,0,.6-.1.7-.1,1.4-.3,2.1-.7l-.4-9.2c-.2-.5-.4-1-.6-1.5v-.2c-.2-.1-.2-.2-.2-.2.3-.6.5-1.2.6-1.8v-1.8c-.1-.3-.2-.5-.2-.8-.2-.8-.8-1.4-1.5-1.7-.6-.3-1.4-.3-2,0-.3-1.1-1.1-1.9-2.1-2.7-1.1-.7-2.4-.8-3.6-.2-1.4.7-2.5,2-3.2,3.7-.6,1.4-.6,2.9,0,4.7-.4.2-.8.5-1.1.9-.8,1-1.2,2.1-1.1,3.2,0,.6.1,1.4.3,2.2.3,1.3.9,2.8,2.4,3.6.3.2.3.2.3.9,0,.5,0,.9,0,1.4,0,2.1-.2,3.8-.4,5.5-.3,1.8-.5,3.4-.6,4.9,0,1.1,0,2.2,0,3.2,0,.4,0,.7,0,1.1.9,0,1.7,0,2.6.1,0-.3,0-.7,0-1,0-.9,0-1.8,0-2.8,0-1.5.2-3,.4-4.7,0-.6.2-1.1.3-1.7,0-.5.2-1,.2-1.6,0-.4,0-.8,0-1.2,0-.2,0-.4,0-.6,0-.4,0-.7,0-1.1,0-.5,0-1,0-1.6h.2c.4,0,.8,0,1.2.1,0,.5-.2,1.1-.2,1.6-.2,1.5-.5,3-.6,4.6,0,.5-.1,1-.2,1.5-.2,1.1-.3,2.2-.3,3.4,0,.7,0,1.5,0,2.3,0,.5,0,.9,0,1.4,0,.6,0,1,.2,1.4.9,0,1.8,0,2.6.1,0,0,0,0,0,0,0-.6,0-1.1,0-1.7ZM962.7,112.8c0-.2.1-.4.2-.6,0,.4,0,.9,0,1.3-.1-.1-.2-.2-.4-.3,0-.1,0-.2.1-.3ZM953.6,115.8c-.2,0-.4-.1-.7-.2-.1,0-.3-.1-.5-.2-.2,0-.4-.2-.7-.2,0,0-.3,0-.5-.3-.8-1.2-1.2-2.5-1.1-3.7,0-.5.4-1.1.6-1.6,0,0,.2,0,.3,0,0,0,.2.2.3.2.2.2.3.3.5.4.3.2.5.2.7.3l1.1.3.2-.9s0,0,0-.1c0-.2.2-.6,0-1-.2-.5-.5-1.1-1.1-1.3-.4-.1-.5-.4-.7-1.1-.4-1.5-.2-2.8.7-3.8.4-.5,1-1,1.6-1.5,0,0,.3-.2.8,0,.9.5,1.3,1,1.4,1.9,0,.3,0,.7.2,1,.1.4.5.9,1.1,1.1.5.1.9-.2,1.1-.4h.1c.1-.2.3-.3.4-.4.2-.1.3-.2.5-.3,0,0,.2.1.3.3.5.8.1,2.2-.7,2.8-.5.4-.6,1.2-.6,1.6,0,.4.2.7.5.8.2.1.5.2.7.2.3.7.5,1.3.4,1.9-.1.5-.2.6-.8.7-.4,0-.7.3-.9.4,0,0,0,0-.1,0l-.9.5.8.9c.1.2.3.4.5.5.3.2.8.3,1.2.2.2,0,.3,0,.6.3.3.5.5,1.1.7,1.7-1.1.4-2.1.6-3.2.3-.4-.1-.8-.2-1.2-.3,0,0,0,0,0,0-.2-.4-.6-.8-1.5-.9-.6,0-1.4-.2-2.2-.3Z"/>
    <path class="st0" d="M893.1,126.8v-.2s.1,0,.1,0v-.6c0-.2-.1-.3-.1-.5,0-.3,0-.6,0-.9,0-.7-.3-1.3-1-1.6-1.5-.7-3-.9-4.6-1h-.2c-1.2-.1-2.4-.2-3.6-.3-.5,0-1,0-1.4.2h-.2c-.4.1-.7.5-.8,1,0,.4-.2.8-.2,1.3,0,1.3,0,2.6.1,3.9,0,.6.3,1.3,1.4,1.6l.9.2c.8.2,1.7.4,2.5.6h.3c.5.2,1,.3,1.5.3,0,0,.2,0,.2,0,.5,0,.9,0,1.4,0,.2,0,.5,0,.7,0,.8,0,1.6-.1,2.4-.2.4,0,.7-.2.9-.5.2-.3.3-.7.2-1.1-.2-.7-.3-1.4-.5-2.1ZM886.4,128.2s0,0-.1,0c-.1,0-.3,0-.4-.1h-.4c-.6-.2-1.2-.4-1.8-.4,0,0,0,0,0,0h0c.2,0,.4,0,.6,0h.9s0,0,0,0c.4,0,.8,0,1.2,0,0,.2,0,.4,0,.6ZM886.6,125.5c-.6,0-1.1,0-1.7,0-.4,0-.8,0-1.2,0,0,0-.1,0-.2,0,0,0,0-.1,0-.2v-.3c.1-.3.1-.5.1-.7.6-.1,1.1-.2,1.5-.2.3,0,.7,0,1,0,.2,0,.4,0,.7,0,0,.4-.1.9-.2,1.4ZM889.6,124.5c.3,0,.7.1,1,.3,0,0,0,0,0,0,0,0,0,0,0,0,0,.2,0,.5,0,.6,0,0-.3,0-.7,0h-.3s-.2,0-.2,0c0,0-.2,0-.3,0,.1-.4.2-.7.4-1.1ZM890.8,128.1c0,0,0,.1,0,.1-.1,0-.2,0-.3,0h-1.5c0,.1,0,.1,0,.1,0,0,0,0,0,0,0-.2,0-.4,0-.6.1,0,.4,0,.6,0,.4,0,.8,0,1.2,0v-.7c0,0,.2.7.2.7,0,0,0,0,0,0v.3Z"/>
    <path class="st0" d="M963.4,123.8v-.2c0,0,0,.2,0,.2h0Z"/>
    <path class="st0" d="M950.8,86.1c.5-.1.9-.2,1.4-.4.9-.2,1.7-.4,2.6-.7.8-.2,1.7-.6,2.4-.9.4-.2.7-.4.8-.8.1-.4,0-.8-.2-1.2-.1-.2-.2-.3-.3-.4,0,0,0,0,.1,0,.2,0,.4-.3.5-.7,0-.3,0-.8-.2-1.1-.3-.4-.6-.8-1-1l-.4-.3c-.6-.5-1.3-1-2-1.4-1.9-1-4.1-1.9-6.6-.7l-.3.2c-.2,0-.4.2-.6.3l-.2-.2c-.3-.3-.6-.5-.9-.8-.2-.1-.4-.3-.6-.4-.7-.5-1.4-.9-2.2-1.2-2.5-.7-5-.6-7.4.3-1.7.6-3,1.5-4,2.6-.4.4-.8.8-1.3,1.2-1-1.7-2.1-2.9-3.3-3.8-1.4-1.1-2.8-2.2-4.8-2.5-.2,0-.4,0-.7,0-1-.2-2.2-.3-3.4,0-1.2.4-2.2,1.2-3,1.9-1.1,1-2.1,2.3-3.2,3.9-.2.4-.5.7-.9,1.2-.4.4-.5,1-.4,1.5.1.5.5.9,1,1.1.2,0,.4.1.5.3.2.1.4.2.5.4.3.2.5.4.8.5.5.3,1.1.6,1.6,1,.6.4,1.3.7,1.9,1.1l.4.3c1.4.8,2.7,1.7,4.4,2.2,1.6.4,3.2.8,4.8,1,2.5.3,4.8.5,7,.7.4,0,.7,0,1.1,0,1.1,0,2.2,0,3.3-.2,2.2-.3,4.4-.7,6.6-1.2,1.4-.3,2.8-.7,4.2-1.1.7-.2,1.3-.4,2-.5ZM944.3,85.1c-.7.1-1.4.3-2.1.4-.4,0-.7.2-1.1.2-1.7.4-3.3.7-5,.7-.2,0-.4,0-.6,0-.1,0-.3,0-.4,0-.4,0-.8,0-1.3,0-1.1,0-2.2,0-3.3,0-.8,0-1.7-.2-2.6-.3-.5,0-1.1-.2-1.6-.2-2.1-.3-3.9-.6-5.4-1.4-1.5-.8-2.9-1.7-4.4-2.6-.5-.3-1-.6-1.5-.9-.4-.2-.7-.5-1.1-.8,0-.2.2-.3.3-.5.3-.6.6-1.1,1.1-1.5.2-.2.4-.4.5-.5.6-1,1.5-1.9,2.8-2.6,1.2-.6,2.4-.3,3.7,0,1.6.5,3,1.7,4.3,3.6.3.5.6.9.9,1.5.3.5.6,1,.9,1.4.3.5.8.7,1.2.8h.1c.7.3,1.2-.3,1.4-.5.1-.2.3-.3.4-.5.2-.2.3-.4.5-.6.8-.7,1.6-1.5,2.4-2.2h.1c.3-.4.5-.6.8-.7,1.7-.8,3.2-1.1,4.7-1.1,1.2,0,2.5.2,3.5.9.7.6,1.4,1.2,2.2,1.9.6.6,1.2.7,1.5.6.4,0,.8-.3,1-.7.5-.9,1.4-.9,1.8-.9,2.1,0,3.8.9,5.1,2.4.2.2.4.5.7.7,0,0-.2.1-.3.2-.2.2-.5.3-1,.4l-1.1.3c-.7.2-1.4.4-2.2.6-.5.1-1.1.3-1.6.5-1,.3-2,.6-2.9.8-.9.2-1.7.4-2.6.5Z"/>
    <path class="st0" d="M884.9,80.6c.3,0,.7,0,1,0,.6,0,1.1.1,1.7.2.8,0,1.7.2,2.5.2.9,0,1.7,0,2.6,0,.7,0,1.4,0,2,0,0,0,.1,0,.2,0,.4,0,.8,0,1.1-.4.4-.4.4-.9.3-1.3,0,0,0-.1,0-.2v-.8c.1-.4.1-.8.2-1.2,0-.3,0-.6,0-.8,0-.3,0-.7,0-1.1,0,0,0,0,0,0,.4-.2.7-.4.8-.8.2-.6-.2-1.1-.4-1.2,0,0,0,0,0,0h0c.1-1,.2-2,.5-3,.1-.4.2-1,0-1.5-.3-.5-.8-.6-1.3-.7-.1,0-.2,0-.4,0l-4.2-.6c-.3,0-.7,0-1-.1-.8-.1-1.5-.2-2.3-.3-1.6-.1-3.3-.3-4.9-.4l-2.7-.2c-.3,0-.8,0-1.3.3-.2.2-.3.4-.4.6-.3.2-.6.6-.6,1.3,0,.2,0,.4,0,.5,0,.6,0,1.2-.2,1.7-.3.7-.4,1.3-.4,2,0,1.1-.2,2.1-.3,3.2,0,.4-.1.8-.2,1.2-.1.8,0,1.7,1.4,2,1.5.3,3,.7,4.5.9.6,0,1.2.1,1.8.1ZM890.7,70.5v-.3c0,0,0,0,.1,0h.4c.5.1.9.2,1.4.3h.4c.5.1,1.1.2,1.7.3,0,.6-.2,1.3-.2,1.9-1,0-2-.1-3.1-.2h-1.2c.2-.7.4-1.3.5-1.9ZM889,76.8c0-.4.2-.8.3-1.2v-.2c0-.2.1-.4.2-.5,0,0,0,0,0,0,0,0,0,0,0,0l4.4.3h.2s0,0,0,0c0,.5,0,.9,0,1.4,0,.4,0,.8,0,1.2,0,.3-.1.6-.2,1-.3,0-.5,0-.8,0-.3,0-.5,0-.8,0h-1.9c-.6-.1-1.2-.1-1.8-.2.1-.5.2-1,.4-1.5ZM881.1,70.9c0-.3,0-.7.1-1,0-.2,0-.4,0-.6h.2c.8,0,1.5,0,2.3.1,1.5,0,2.9.2,4.4.3-.3.7-.5,1.4-.8,2.1v.4c-1.9,0-3.6-.4-5.3-.7-.3,0-.6-.1-.9-.2,0-.1,0-.2,0-.4ZM880.7,77.4c0,0-.1,0-.2,0-.1,0-.2,0-.3,0,0-.1,0-.2,0-.3,0-.6.2-1.2.3-1.8,0-.4.1-.9.2-1.3.2,0,.3,0,.5.1.5,0,1,.2,1.5.3,1.3.2,2.6.3,3.8.5-.2.9-.4,1.8-.7,2.7l-.2.6c-1.8,0-3.3-.1-4.8-.5h-.1Z"/>
    <path class="st0" d="M929.8,130c-.2-1.3-.4-2.5-.4-3.7.1-1.7.2-3.1.4-4.5.9.5,1.8.9,2.9,1.2,2,.5,4,.6,6,.2,1-.2,1.8-.9,2.3-2,.5-1,.5-2.1,0-2.9.2-.2.3-.4.5-.6l.3-.3c.9-1,1.7-2.2,1.6-3.8,0-.6,0-1.2,0-1.8,0-1.3-.5-2.2-1.6-2.7-.3-.1-.6-.2-.8-.2.2-.5.5-1,.6-1.6h0c.2-1,.5-2.3-.6-3.3-.4-.4-.9-.8-1.4-1.2-.8-.5-1.7-.6-2.7-.3-.2,0-.3,0-.5.1,0,0,0,0,0,0,0-1.9-1-3.2-2.7-3.8-.1,0-.3-.1-.4-.2-.5-.2-1-.5-1.6-.3-1,.2-2,.6-3,1h-.3c-.3.2-.6.4-.8.6-.7-1.2-2.1-2.3-4.7-1.7-.5.1-.8.3-1.1.5-1,1-2.1,2.1-2.5,3.7h-.6c-.8.3-1.7.5-2.5,1-1.8,1-2.7,2.6-2.6,4.6v.4c0,.9.1,1.9.7,2.8.7,1.1,1.7,1.8,2.7,2.4.2.1.6.4.7.4h0c0,0,0,.4-.1.6,0,.3-.1.7-.1,1.1,0,.3,0,.8.4,1.2.4.4.8.8,1.3,1.2.8.7,1.9,1,2.8,1.3h.4c.2.2.3.2.5.3.3,0,.5.1.8.2v.5c0,1,0,2.1-.2,3.2-.4,3-.5,5.9-.4,8.9,0,.5,0,.9,0,1.4.9,0,1.9,0,2.8.1-.2,0-.3,0-.5,0v-1c0-.9,0-1.9,0-2.8,0-1.7.2-3.4.3-5.2,0-1.1.2-2.3.3-3.4v-.8c.5,0,.9.2,1.3.4h0c-.1,1.4-.3,2.8-.4,4.2-.2,1.6-.1,3.4.2,5.3.1.7.2,1.4.2,2.1v.7c0,.2,0,.3,0,.5,1,0,2,0,3,0,0-.8-.1-1.6-.2-2.3,0-.5-.2-1-.2-1.5ZM926.6,118.1c-.3-.1-.7-.2-1-.3-.2,0-.4,0-.6-.1-.2,0-.3,0-.5-.1-.3,0-.6-.2-.9-.3-.9-.3-1.7-.5-2.5-.9-.5-.2-1-.7-1.3-1.1-.1-.1,0-.4.1-.5.4-.6.4-1.2,0-1.8-.5-.8-1.2-1.3-2.1-1.8-1-.5-1.6-1.2-1.7-2.3v-.3c0-.2,0-.4,0-.6-.1-1,.2-1.7,1.1-2.3.8-.6,1.5-.9,2.1-.9s.4,0,.6,0c.6.1,1.3,0,1.6-1.1.2-.7.4-1.5.7-2.1.2-.4.6-.8.9-1,.5-.3,1-.4,1.4-.2.3.1.5.4.6.8,0,.4.1.8.2,1.2v.4c.2.9.6,1.4,1.3,1.4.4,0,1.2,0,1.4-1.3.1-.6.5-1.1,1.2-1.4.7-.3,1.5-.7,2.2-1,0,0,0,0,.2,0,.7,0,1.3.4,1.7,1,.4.6.5,1.3.3,2-.1.4-.1,1.3.4,1.7.5.4,1.1.2,1.5,0,.3,0,.6-.2.9-.3.3-.1.6-.2.9-.3.4-.1.9,0,1.3.5.2.2.5.6.4,1.1-.4,1.2-.9,2.1-1.7,2.9-.1.1-.4.3-.5.7,0,.3-.1.8.2,1.2.4.6,1.2.5,1.4.4.3,0,.6-.1.9-.2.4,0,.8-.2,1.2-.3,0,0,.2.1.2.3,0,.3,0,.7,0,1v.4c0,1,0,1.8-.6,2.4-.6.7-1.2,1.3-1.8,1.9-.3.3-.5.7-.5,1.1,0,.4.2.7.6,1,.2.1.3.3.3.5,0,.2,0,.5-.3.7-.2.2-.5.3-1,.4-2.5.3-4.7-.2-6.6-1.5-.8-.5-1.6-.8-2.6-.9-.6,0-1.2-.3-1.8-.5Z"/>
    <path class="st4" d="M890.3,89.8c0,.6,0,1.1,0,1.7v1.4c.7.2,1.5.4,2.2.6,0-.9.2-1.8.2-2.8v-.5s-1-.2-1-.2c-.5,0-1-.2-1.4-.3Z"/>
    <path class="st4" d="M890.8,95.7c-.3,0-.5-.1-.8-.2-.1,1.4-.4,2.9-.9,4.4,1,.1,2,.3,3,.4,0-1.1,0-2.1.1-3.1v-1.1c-.2,0-.5-.2-.8-.3-.2,0-.4-.1-.6-.2Z"/>
    <path class="st4" d="M884.2,94.3c-.8,0-1.6-.1-2.4-.2,0,1,0,2,0,3v1c0,.3,0,.5,0,.6,0,0,0,0,0,0,0,0,.2,0,.5.1.7.2,1.3.3,2,.4.7.1,1.4.3,2.1.4.2-.7.3-1.4.5-2.1.1-.7.2-1.4.4-2.1v-.7c-.3-.1-.8-.2-1.2-.2-.6,0-1.2-.1-1.7-.2Z"/>
    <path class="st4" d="M894.5,72.6c0-.6.2-1.3.2-1.9-.6,0-1.1-.2-1.7-.2h-.4c-.4-.1-.9-.2-1.4-.3h-.4s0,0,0,0v.3c-.2.6-.4,1.2-.6,1.8h1.2c1,.1,2,.2,3.1.3Z"/>
    <path class="st4" d="M899.5,60l-1.3-1.6c-.8-1-1.7-2-2.5-3l-.7-.8c-1.1-1.3-2.2-2.6-3.4-3.9-.6-.7-1.4-1.3-2.1-2l-.3-.2c-.3.3-.6.5-.9.8-.3.3-.6.5-.9.8-.2.2-.4.3-.6.5-.2.1-.4.3-.6.5-.7.7-1.4,1.4-2.2,2.1l-1.1,1c-.7.7-1.5,1.4-2.2,2.1-.7.7-1.4,1.5-2.1,2.2h0s.4.1.4.1c.9.2,1.7.5,2.6.7,3.3.8,7,1,11.5.8.7,0,1.5,0,2.2,0,.5,0,1,0,1.4,0,.8,0,1.8,0,2.7-.1,0,0,0,0,0,0Z"/>
    <path class="st4" d="M879.8,133.8c2,.2,4.1.3,6.1.4,1.5,0,3,0,4.4-.1h1.2c1.3-.1,2.6-.2,3.9-.3l2.6-.2h0c.4,0,.9,0,1.3,0,0,0,0,0,0,0,0,0,0,0,0,0-7.2,0-17.5,0-23.1,0,1.2,0,2.3.2,3.4.3Z"/>
    <path class="st4" d="M898.1,128.1c0-.6-.2-1.3-.2-1.9-.1-.8-.2-1.7-.3-2.5-.1-1.5-.2-3-.3-4.5,0-.9-.1-1.9-.2-2.8h0c0-1.5-.2-3-.4-4.4,0-.6-.2-1.2-.3-1.8-.1-.6-.2-1.3-.3-1.9-.5-4.4-.5-8.3,0-11.9.2-1.5.4-3.1.7-4.6,0-.6.2-1.2.3-1.7.2-1,.3-2.1.5-3.1.2-1.5.3-3,.5-4.4l.2-2c0-.7.2-1.5.3-2.2.2-1.6.4-3.3.5-4.9.1-2.1.1-4.2.1-6.3v-1.4c0-.7,0-1.4-.1-2.2v-.8c0,0-5.6,0-5.6,0-.2,0-.5,0-.7,0-.4,0-.8,0-1.3,0-.8,0-1.6,0-2.4,0-2.3,0-4.7-.2-7-.7-1.1-.2-2.2-.5-3.2-.8l-1.6-.4c0,.2,0,.4,0,.6,0,.5-.1.9-.2,1.4-.5,1.7-.6,3.4-.8,5.2-.1,1.2-.3,2.4-.5,3.7-.2,1.3-.3,2.6-.4,3.9v.7c-.1,1.1-.1,2,0,2.9,0,.5.1,1,.2,1.5,0,.4.1.7.2,1.1.4,3,.4,6,.3,8.8,0,1.3,0,2.6,0,3.8v.6c0,.6,0,1.2.1,1.8,0,1.1.1,2.2.1,3.3,0,1.3-.2,2.6-.4,3.8v1.1c-.2.5-.3,1.1-.4,1.6,0,.3-.1.6-.2.9l-.3,1.6c-.2,1.4-.5,2.8-.6,4.2-.2,1.7-.4,3.5-.6,5.2v.8c-.4,2.9-.4,5.8-.4,8.6,0,.7,0,1.5,0,2.2,0,.7.1,1.5.3,2.3,0,.3,0,.6.1.9.5,0,.9,0,1.3,0s.8,0,1.1,0c5.6,0,15.8,0,23.1,0,0-.3-.1-.5-.2-.8-.5-1.4-.9-2.9-1.1-4.6ZM877.3,77.5c0-.4.1-.8.2-1.2.2-1.1.3-2.2.3-3.2,0-.7,0-1.3.4-2,.2-.5.2-1.1.2-1.7,0-.2,0-.4,0-.5,0-.7.3-1.1.6-1.3,0-.2.2-.5.4-.6.4-.4,1-.3,1.3-.3l2.7.2c1.6.1,3.3.2,4.9.4.8,0,1.5.2,2.3.3.3,0,.7,0,1,.1l4.2.6c.1,0,.2,0,.4,0,.5,0,1,.2,1.3.7.3.5.2,1,0,1.5-.2.9-.3,1.9-.5,2.9h0c0,.1,0,.1,0,.1.2.2.6.7.4,1.2-.1.3-.4.6-.8.8,0,0,0,0,0,0,0,.4,0,.7,0,1.1,0,.3,0,.6,0,.8,0,.4,0,.8,0,1.2v.8c0,0,0,.1,0,.2,0,.4,0,.9-.3,1.3-.3.3-.7.4-1.1.4s-.1,0-.2,0c-.7,0-1.4,0-2,0-.9,0-1.7,0-2.6,0-.8,0-1.7-.1-2.5-.2-.6,0-1.1-.1-1.7-.2-.3,0-.7,0-1,0-.6,0-1.2,0-1.8-.1-1.5-.2-3-.6-4.5-.9-1.4-.3-1.5-1.3-1.4-2ZM893.4,130c-.2.3-.5.4-.9.5-.8,0-1.6,0-2.4.2-.2,0-.5,0-.7,0-.4,0-.9,0-1.4,0s-.2,0-.2,0c-.5,0-1-.1-1.5-.3h-.3c-.8-.3-1.7-.5-2.5-.7l-.9-.2c-1.1-.3-1.4-1-1.4-1.6,0-1.3-.1-2.6-.1-3.9,0-.5.1-.9.2-1.3.1-.4.4-.8.8-.9h.2c.5-.1.9-.2,1.4-.2,1.2,0,2.4.2,3.6.3h.2c1.5.2,3.1.3,4.6,1,.7.3,1,.9,1,1.6,0,.3,0,.6,0,.9,0,.2,0,.3,0,.5v.6c0,0,0,0,0,0v.2c.2.7.3,1.4.5,2.1,0,.4,0,.8-.2,1.1ZM893.8,113.5c-.1,1.1-.2,2.3-.3,3.4,0,.2,0,.3,0,.5,0,.5-.1.9-.4,1.1-.3.3-.6.4-1.1.3-.8,0-1.6,0-2.4-.1-.6,0-1.1,0-1.7,0-.3.5-.8.8-1.3.8s0,0,0,0c-.4,0-.8-.2-1-.4-.2-.2-.3-.4-.3-.7-.5,0-.9-.1-1.4-.1-1,0-1.9-.1-2.9-.5-.7-.2-1.4-.7-1.2-1.9,0-.5,0-.9,0-1.4,0-.4,0-.8,0-1.3,0-1.1.2-2.2.3-3.3v-.6c.1-.4.2-.7.2-1,0-.3,0-.7.1-1,0-.3.1-.8.5-1.1.4-.3,1-.2,1.2-.2.1,0,.3,0,.4,0h.3c0-.3.2-.5.3-.7.3-.2.6-.3,1.1-.3h.7c1.4.3,2.8.5,4.1,1l.6.2c.7.3,1.4.5,2.1.9.6.3,1,.8,1.4,1.2l.2.2c.3.3.3.8.3,1.1,0,.7,0,1.3,0,2h0s.2,0,.2,0l-.2,1.8ZM895.5,91.2c0,1.4-.2,2.8-.3,4.2,0,.4,0,.9-.2,1.3,0,.4-.1.8-.1,1.2,0,.9,0,1.7-.1,2.6v.2c0,.2,0,.4,0,.6.1.7-.1,1.1-.3,1.4-.2.2-.5.4-1,.4s-.2,0-.2,0c-.9-.1-1.8-.2-2.8-.4l-1.4-.2c-.1,0-.2,0-.4,0h-.2c-2.4-.2-4.8-.6-7.3-1.4-.5-.1-.9-.4-1.4-.6-.7-.4-1-1-1-1.9,0-1.4,0-2.9.1-4.3v-.5c0-2.5.4-4.4,1.1-6.1.4-.9,1.2-1,1.8-.8.4.1,1.1.5.8,1.7-.2.9-.5,1.8-.7,2.8,0,0,0,.1,0,.2.8.2,1.6.3,2.4.4.6,0,1.3.1,1.9.2.4,0,.8,0,1.2.1,0-1,0-2.1.1-3.1-.7-.3-1.5-.4-2.4-.3-1,0-1.8-.4-2.1-1.3l-.2-.6.5-.4c.7-.6,1.6-.4,1.9-.4h.8c.9.3,1.7.4,2.6.6.3,0,.6.2.9.3.2,0,.4.2.7.2,1.3.3,2.6.5,3.8.7,1,.2,1.5.9,1.5,1.8v1.5Z"/>
    <path class="st4" d="M888.9,44.1c.2-.2.4-.3.6-.5.3-.2.7-.5,1-.7,0,0-.2,0-.3-.1-.3-.2-.6-.4-.9-.7l-.3-.2c-.8-.7-1.2-.6-1.8-.2-.5.4-.9,1-1.3,1.6-.1.2-.5.7-1.2.8-.4,0-.8-.2-1.1-.6-.3-.4-.5-.7-.7-1.1-.1-.2-.2-.4-.3-.6-.2-.3-.4-.5-.6-.5-.3,0-.7.1-.9.3-.9.6-1.3,1.5-1.8,2.5v.2c-.1.2-.2.3-.2.5-.2.5-.6,1.3-1.3,1-.3,0-.9-.3-1.2-.8-.3-.5-.6-1.1-.9-1.6l-.3-.6c-.4-.8-2.5-1.6-3.4-1.1-1.2.6-2.1,1.5-3,2.6-.7.8-1.1,1.8-1.5,2.6,0,0,0,0,0,0,1.1.6,2.3,1.1,3.6,1.4,2,.5,4,.3,5.9,0,2-.3,3.9-.8,5.7-1.4,1.8-.6,3.7-1.4,5.4-2.2.4-.2.7-.4,1.1-.7Z"/>
    <path class="st4" d="M892.3,78.5c.3,0,.5,0,.8,0,.3,0,.5,0,.8,0,0-.3.2-.6.2-1,0-.4,0-.8,0-1.2,0-.5,0-.9,0-1.4,0,0,0,0,0,0h-.2s-4.4-.3-4.4-.3c0,0,0,0,0,0,0,0,0,0,0,0,0,.1,0,.3-.1.5v.2c-.1.4-.2.8-.3,1.2-.1.5-.2,1-.4,1.5.6,0,1.2,0,1.8,0h1.9Z"/>
    <path class="st4" d="M891.2,109.7c0,0,0-.3-.4-.4-.4-.2-.8-.4-1.2-.5h0c-.2,1.2-.4,2.2-.6,3.3.1,0,.3,0,.4,0,.3,0,.6,0,.9,0,.3,0,.6,0,.9.2,0-.4,0-.7,0-1.1,0-.5,0-1,0-1.5Z"/>
    <path class="st4" d="M889.7,125.6h.3c.4,0,.6,0,.7,0,0-.1,0-.4,0-.6,0,0,0,0,0,0,0,0,0,0,0,0-.3-.1-.7-.2-1-.3-.1.4-.3.7-.4,1.1,0,0,.2,0,.3,0h.2Z"/>
    <path class="st4" d="M885.2,124c-.4,0-.9,0-1.5.2,0,.2,0,.5,0,.7v.3c0,0,0,.1,0,.2,0,0,.1,0,.2,0,.4,0,.8,0,1.2,0,.6,0,1.1,0,1.7,0,.1-.4.2-.9.2-1.4-.2,0-.5,0-.7,0-.3,0-.7,0-1,0Z"/>
    <path class="st4" d="M887.2,72.2v-.4c.4-.7.6-1.4.9-2.1-1.5-.1-2.9-.2-4.4-.3-.8,0-1.5,0-2.3-.1h-.2c0,.2,0,.4,0,.6,0,.3,0,.7-.1,1,0,.1,0,.2,0,.4.3,0,.6.1.9.2,1.8.4,3.5.7,5.2.7Z"/>
    <path class="st4" d="M890.9,127.8v-.7c0,0-.2.7-.2.7-.4,0-.8,0-1.2,0-.2,0-.4,0-.6,0,0,.2,0,.4,0,.6,0,0,0,0,0,0,0,0,0,0,0,0h1.5c.1-.1.2-.2.3-.2,0,0,0,0,0-.1v-.3c0,0,0,0,0,0Z"/>
    <path class="st4" d="M882.3,113.5c0,.5,0,1,0,1.5v.7s0,0,0,0c0,0,0,0,.2,0,.8.1,1.6.2,2.4.3h.6c.1-.7.2-1.4.4-2.1-.9-.1-1.7-.2-2.6-.3h-.9Z"/>
    <path class="st4" d="M888.5,114.4c0,.2,0,.4,0,.6,0,.4-.1.9-.2,1.4h.4c.8,0,1.6,0,2.4,0h0c.1-.7.2-1.3.3-1.9-.3.2-.7.3-1,.2-.6,0-1.2-.2-1.7-.4Z"/>
    <path class="st4" d="M885,107.5c-.4.9-.8,1.1-1.8.9-.2,0-.4,0-.4.1-.1.5-.2,1.1-.3,1.6,0,.3-.1.6-.2.9,1,.2,1.9.4,2.9.5l.8.2c.1,0,.3,0,.4,0,0-.1,0-.3,0-.4.1-.6.2-1.2.3-1.9,0-.5.1-1,.2-1.6h-.2c-.6-.1-1.2-.2-1.8-.4Z"/>
    <path class="st4" d="M957.4,117.1s0,0,0,0c.4,0,.8.1,1.2.3,1,.3,2,.1,3.2-.3-.2-.6-.4-1.2-.7-1.7-.2-.4-.4-.4-.6-.3-.4,0-.8,0-1.2-.2-.2-.2-.4-.4-.5-.5l-.8-.9.9-.5s0,0,.1,0c.2-.1.5-.4.9-.4.5,0,.6-.1.8-.7.1-.6,0-1.2-.4-1.9-.2,0-.5,0-.7-.2-.3-.2-.5-.5-.5-.8,0-.4,0-1.2.6-1.6.8-.6,1.1-2,.7-2.8,0-.1-.2-.2-.3-.3-.1,0-.3.2-.5.3-.1.1-.3.2-.4.3h-.1c-.2.2-.6.5-1.1.4-.5-.1-.9-.6-1.1-1.1-.1-.4-.2-.7-.2-1,0-.9-.5-1.4-1.4-1.9-.5-.2-.7,0-.8,0-.6.5-1.2,1-1.6,1.5-.9,1-1.1,2.3-.7,3.8.2.7.3,1,.7,1.1.6.2.9.8,1.1,1.3.1.4,0,.8,0,1,0,0,0,0,0,.1l-.2.9-1.1-.3c-.2,0-.5-.1-.7-.3-.2-.1-.3-.3-.5-.4,0,0-.2-.2-.3-.2,0,0-.2,0-.3,0-.2.5-.6,1.1-.6,1.6-.1,1.2.2,2.5,1.1,3.7.2.3.4.3.5.3.3,0,.5,0,.7.2.2,0,.3.1.5.2.2,0,.5.2.7.2.8.2,1.6.3,2.2.3.9.1,1.3.5,1.5.9Z"/>
    <path class="st4" d="M885.2,127.5h-.9c-.2,0-.4,0-.6,0h0s0,0,0,0c.6,0,1.2.2,1.8.4h.4c.1.1.3.2.4.2,0,0,0,0,.1,0,0-.2,0-.4,0-.6-.4,0-.8,0-1.2,0h0Z"/>
    <path class="st4" d="M952.1,134.6h1.3s0,0,0,0c-.4,0-.9,0-1.3,0,0,0,0,0,0,0Z"/>
    <path class="st4" d="M953.3,131.8c0-.8,0-1.5,0-2.3,0-1.2,0-2.3.3-3.4,0-.5.2-1,.2-1.5.1-1.5.4-3.1.6-4.6,0-.5.2-1.1.2-1.6-.4,0-.8,0-1.2-.1h-.2c0,.5,0,1.1,0,1.6,0,.4,0,.7,0,1.1,0,.2,0,.4,0,.6,0,.4,0,.8,0,1.2,0,.5-.2,1-.2,1.6,0,.6-.2,1.1-.3,1.7-.2,1.7-.3,3.2-.4,4.7,0,.9,0,1.8,0,2.8,0,.3,0,.7,0,1,.4,0,.9,0,1.3,0-.1-.4-.2-.9-.2-1.4,0-.5,0-.9,0-1.4Z"/>
    <path class="st4" d="M900.9,39.4c.3,0,.6.1.8.4.3-.3.5-.7.6-1.3,0-.4-.2-.5-.2-.6-.4,0-1.7.6-2.1,1.1.1.1.4.4.5.4,0,0,.2,0,.3,0Z"/>
    <path class="st4" d="M962.9,112.2c0,.2-.1.4-.2.6,0,.1,0,.2-.1.3.1.1.3.2.4.3,0-.4,0-.9,0-1.3Z"/>
    <path class="st4" d="M963.7,135.1c0-.2,0-.4,0-.6,0-1.6,0-3.2,0-4.7,0-.7,0-1.4,0-2.1v-2.8c0-.3,0-.6,0-1l-2.2,11.1s-2.1,0-5.1-.2c0,0,0,0,0,0,0,0,0,0,0,0l6.5.5c0,0,.1,0,.2,0,.2,0,.6,0,.8,0,0,0,0,0,0-.1Z"/>
    <path class="st4" d="M963.3,119.1s0,0,0,0l.2,4.5c0-1.5,0-3-.1-4.5Z"/>
    <path class="st4" d="M963.4,123.8c0,0,0-.2,0-.2l-.2-4.5c-.7.4-1.4.6-2.1.7-.2,0-.4,0-.6.1-1,.2-1.9,0-2.7,0-.2,0-.4,0-.6-.1,0,0,0,0,0,0,0,.2,0,.4,0,.6l-.3,2.3c0,.9-.2,1.9-.3,2.8,0,.4,0,.7-.1,1,0,.5-.1,1-.2,1.5,0,1.1,0,2.2,0,3.3v.3c0,.4,0,.9,0,1.3,0,.6,0,1.1,0,1.7,0,0,0,0,0,0,3,.1,5.1.2,5.1.2l2.2-11.1Z"/>
    <path class="st4" d="M896.4,51.5c.2-.6.3-1.2.5-1.8l.2-.7c.2-.8.5-1.6.8-2.5.1-.3.2-.7.4-1,0-.2.1-.4.2-.5-.6-.2-1.1-.3-1.7-.5-.1.4-.2.8-.3,1.2l-.4,1.6c-.2.8-.4,1.7-.6,2.5,0,.3-.2.6-.4.8.4.5.8.9,1.2,1.4,0-.2,0-.3.1-.5Z"/>
    <path class="st4" d="M937.4,133.8c2,0,4,.2,5.9.3h1.1c1.4.2,2.8.3,4.1.4h1.1s0,0,0-.1c-4.6-.2-9.3-.4-11.6-.6-.2,0-.4,0-.6,0Z"/>
    <path class="st4" d="M902.6,133.5c1,0,2-.1,2.9-.2-.8,0-1.8,0-3,0,0,0,0,0,0,.1Z"/>
    <path class="st4" d="M868.8,133.9c.4,0,.8-.1,1.3-.2-3.6.3-5.6.7-5.6.7,1.5,0,3-.3,4.3-.5Z"/>
    <path class="st4" d="M905.6,133.4h1.3c1-.1,2.1-.2,3.1-.2.4,0,.8,0,1.3,0,.3,0,.5,0,.8,0,0,0,.1,0,.2,0,.2,0,.4,0,.6,0h.9c1.4,0,2.8,0,4.1.1,1.6,0,3.2.2,4.8.3h.1s0,0,0,0c-2.2-.1-4.5-.3-6.7-.6-4.1-.6-8.7.3-10.6.3Z"/>
    <path class="st4" d="M937.3,133.8c-.7,0-1.5,0-2.5,0,.8,0,1.7,0,2.5,0Z"/>
    <path class="st4" d="M930.3,133.9c.2,0,.4,0,.6,0,.3,0,.5,0,.8,0-.5,0-.9,0-1.4,0,0,0,0,0,0,0Z"/>
    <path class="st4" d="M962.8,108.2c0-2.5-.1-5-.2-7.5,0-2-.2-4-.2-6v-1.1c0-.6,0-1.1-.1-1.7,0-.9,0-1.7-.1-2.6,0-1.3,0-2.7-.1-4,0-1,0-2,0-3v-.3c0-1.4,0-2.8-.2-4.3,0-1-.1-2-.2-3,0-1.5-.2-3-.2-4.5,0-1.1,0-2.3,0-3.4,0-.6,0-1.3,0-1.9,0-3.9-.4-7.9-.8-11.3-.2-1.4-.2-2.8-.3-4.2,0-.8-.1-1.6-.2-2.4v-1.3c-.2-1.5-.3-3-.5-4.5-.3-2.2-.6-4.6-1.1-7.4-.1-.7-.3-1.4-.5-2.1,0-.3-.2-.6-.2-.9,0-.2,0-.2-.2-.2h-.8c-.6,0-1.1-.1-1.7-.2h-1c-1.2-.1-2.5-.2-3.7-.2-1.1,0-2.2,0-3.3.1-.5,0-.9,0-1.4,0h-1.8c-1.4.1-2.8.2-4.2.2-1.3,0-2.7.2-4,.4l-4.8.5c-1.4.1-2.8.3-4.1.4-.5,0-1.1,0-1.6.1-.9,0-1.7.1-2.5.2-.8,0-1.6.2-2.4.4-.7.1-1.5.2-2.2.3-.8.1-1.7.2-2.5.2h-1c-1.4.2-2.7.3-4.1.3-1,0-1.9,0-2.9.1-1.1,0-2.2,0-3.2.1-.9,0-1.7.1-2.6.2-1.2,0-2.4.2-3.6.2-1,0-1.9,0-2.9,0-.8,0-1.6,0-2.4,0-.8,0-1.7,0-2.5.1-.7,0-1.4,0-2.1.1-1.2,0-2.4,0-3.6.1l-11.8.3c-.8,0-1.5,0-2.2,0-1.7,0-3.4.1-5.1,0-1,0-1.9-.3-2.8-.6-.3-.1-.6-.2-1-.3-.4-.1-.8-.4-1-.6-.2-.1-.3-.3-.4-.4,0,.4,0,.9,0,1.3,0,.9,0,1.9,0,2.8v.6c0,1.1,0,2.2.1,3.2v.6c0,.3,0,.6,0,.9,0,.7,0,1.4,0,2.1,0,1.2-.2,2.5-.3,3.7l-.2,1.8-.4,11.1c0,1.6-.1,3.2-.2,4.9v.4c0,3.4-.1,6.9-.1,10.3,0,2.2,0,4.3.3,6.4.1,1.4.3,2.9.4,4.3.1,1,.2,2.1.3,3.1.1,1.4.2,2.8.3,4.2l.3,4c.1,1.3.2,2.6.3,3.9,0,1.2.1,2.2.2,3.2,0,1.9,0,3.7.1,5.6,0,2.3,0,4.5.1,6.8,0,1.2,0,2.5.2,3.7v1.3c0,0,0,0,0,.1.7,1,.6,2.1.5,2.9,0,.2,0,.5,0,.7,0,1.3-.1,2.5-.2,3.8v.8c0,.3,0,.7-.1,1,0,.4,0,.8,0,1.2,0,.3,0,.5,0,.8.2-.1.4-.2.6-.2.5,0,1,0,1.6,0h0s2-.4,5.6-.7c.4,0,.8-.1,1.1-.1-.3-1.8-.6-3.9-.4-6.1,0-.4,0-.8,0-1.3,0-.4,0-.9,0-1.4.2-2.9.4-5.8.6-8.8.1-1.8.3-3.4.5-5,.1-.9.3-1.9.5-2.8,0-.4.2-.8.2-1.2v-.3c.1-.3.2-.5.2-.8v-1c.3-1.2.5-2.5.6-3.7,0-.9.1-1.8,0-2.6,0-1.2-.1-2.4-.2-3.6,0-.9-.1-1.9-.2-2.8,0-.4,0-.7,0-1.1,0-.3,0-.5,0-.8,0-2.7-.1-5.3-.2-8,0-.2,0-.4-.1-.6,0-.2,0-.4-.1-.5-.3-1.6-.4-3.3-.2-5.1.1-1.1.2-2.2.4-3.2.1-1.4.3-2.8.5-4.3.1-1,.3-1.9.4-2.9.1-.7.2-1.5.3-2.2.1-.7.2-1.5.3-2.2,0-.6.1-1.2.2-1.8,0-.4.2-.8.5-1.1,1.1-1.2,2.2-2.4,3.3-3.6.7-.7,1.4-1.4,2.1-2.1l.9-1c.5-.5,1-1.1,1.6-1.5.3-.2.6-.5.8-.7-.3.1-.6.2-.9.3-1.5.4-2.9.8-4.3,1-1.4.3-2.8.4-4.3.6-2.4.2-4.7-.2-6.8-1.2-1-.5-1.9-1.1-2.8-1.7l-.6-.4c-.4-.3-1-1.2-.5-1.8.2-.4.6-.5.8-.5.1,0,.2,0,.4,0,.2-.5.5-1,.7-1.4v-.2c.8-1.4,1.9-2.6,3.1-3.6,2.1-1.7,4.4-1.9,6.9-.5.9.5,1.5,1.1,1.9,1.7.7-1.2,1.7-2,2.9-2.6,1.1-.5,2.3-.3,3.3.6.4.3.7.7,1,1,0,0,0,0,0,0,0,0,0,0,0,0,.8-.9,1.8-1.5,2.9-1.6,1,0,2.1.3,2.8.9.1.1.3.2.4.3.3.2.6.5.8.7.3.3.3.7.3.9v.2c.1,0,.2,0,.3,0,.3,0,.5.2.7.3l.9.5-.4.7s0,0,0,.1c0,.2-.2.5-.5.8-.5.4-1.1.8-1.7,1.1-.2.2-.5.3-.7.5l2.3,2.2c.4-1.6.8-3.2,1.2-4.7,0-.2,0-.4,0-.6,0-.6.3-1,.6-1.2.2-.2.6-.3,1.2-.2.8.2,1.6.4,2.5.7.4.1.9.2,1.3.4-.4-.3-.6-.7-.6-1.3,0,0,0-.1-.1-.1-.1-.1-.3-.2-.4-.4-.3-.2-.6-.5-.8-.8-.7-.9-.6-2,.2-2.8,1-1,2.2-1.6,3.7-1.7.9-.1,2,.3,2.7,1.1.7.8.9,1.8.6,2.8-.6,2.3-2.4,3.1-3.7,3.5-.2,0-.3,0-.5,0,.5.2.7.4.8.7.1.2.2.6,0,1.2-.2.6-.4,1.2-.6,1.8-.3,1-.7,2-.9,3-.3.8-.5,1.7-.7,2.6-.1.5-.2,1-.4,1.5,0,.4-.2.7-.3,1.1v.2s2.7,3.2,2.7,3.2c.6.7,1.1,1.3,1.7,2,.4.5.2,1.3,0,1.7-.3.4-.8.4-1,.5,0,0-.1,0-.2,0v.8c.2,1.9.3,3.9.3,5.8,0,2.1,0,3.9-.2,5.7-.1,1.4-.3,2.8-.5,4.2-.1.8-.2,1.6-.3,2.4,0,.6-.1,1.2-.2,1.7,0,.6-.1,1.2-.2,1.8-.1,1.2-.3,2.4-.5,3.6-.1,1-.3,2-.4,3.1-.1,1-.3,2.1-.5,3.1-.3,1.8-.6,3.5-.6,5.3v.8c0,1.7,0,3.4.1,5.1,0,1.2.3,2.4.4,3.6.1.8.2,1.5.3,2.3.2,1.5.3,2.9.4,4.4,0,.8.1,1.6.2,2.5,0,1.1.1,2.2.2,3.4,0,1,.2,2.1.3,3.1l.2,1.5c0,.4,0,.7.1,1.1.1,1.8.7,3.6,1.2,5,.1.3.2.6.2.9,1.2,0,2.2,0,3,0,1.9,0,6.5-.9,10.6-.3,2.2.3,4.4.5,6.7.6,0-.5,0-.9,0-1.4-.1-2.9,0-5.9.4-8.9.1-1,.1-2.1.2-3.2v-.5c-.2,0-.5-.2-.8-.2-.2,0-.3,0-.5-.1h-.4c-.9-.4-1.9-.7-2.8-1.4-.5-.4-.9-.8-1.3-1.2-.4-.4-.4-.9-.4-1.2,0-.4,0-.8.1-1.1,0-.2.1-.5.1-.6h0s-.4-.2-.7-.4c-1-.6-2-1.2-2.7-2.4-.6-1-.6-2-.7-2.8v-.4c-.2-2,.8-3.6,2.6-4.6.8-.4,1.7-.6,2.5-.8h.6c.4-1.7,1.4-2.9,2.5-3.8.3-.2.6-.4,1.1-.5,2.6-.6,4,.5,4.7,1.7.3-.2.5-.3.8-.4h.3c1-.5,1.9-.9,3-1.1.6-.1,1.2.1,1.6.3.1,0,.3.1.4.2,1.7.6,2.6,1.9,2.7,3.8,0,0,0,0,0,0,.2,0,.3,0,.5-.1.9-.3,1.9-.2,2.7.3.5.4,1,.8,1.4,1.2,1.1,1,.8,2.3.6,3.2h0c-.1.7-.4,1.2-.6,1.7.3,0,.5,0,.8.2,1.2.5,1.7,1.4,1.6,2.7,0,.6,0,1.2,0,1.8.1,1.6-.7,2.8-1.6,3.8l-.3.3c-.2.2-.3.4-.5.6.4.9.4,1.9,0,2.9-.5,1.1-1.4,1.8-2.3,2-2,.4-4,.3-6-.2-1.1-.3-2-.7-2.9-1.2-.1,1.3-.3,2.8-.4,4.5,0,1.2.1,2.4.4,3.7,0,.5.2,1,.2,1.5,0,.7.2,1.5.2,2.3.5,0,1,0,1.4,0,.2,0,.3,0,.5,0h1.1c.5,0,1,0,1.5,0,1,0,1.8,0,2.5,0,0,0,0,0,0,0,0,0,0,0,0,0,.2,0,.4,0,.6,0,2.3.1,7,.3,11.6.6,0-.4,0-.7,0-1.1,0-1.1,0-2.2,0-3.2,0-1.5.3-3.1.6-4.9.3-1.7.4-3.5.4-5.5,0-.5,0-.9,0-1.4,0-.7,0-.7-.3-.9-1.5-.8-2.1-2.4-2.4-3.6-.2-.8-.3-1.6-.3-2.2,0-1.1.3-2.1,1.1-3.2.3-.4.7-.7,1.1-.9-.6-1.8-.6-3.3,0-4.7.8-1.7,1.8-3,3.2-3.7,1.2-.6,2.5-.6,3.6.2,1.1.8,1.8,1.6,2.1,2.7.7-.3,1.4-.3,2,0,.7.3,1.3.9,1.5,1.7,0,.3.1.5.2.8.1.6.1,1.2,0,1.8l.2,3.7c0,0,0,.1,0,.2,0-.6,0-1.2,0-1.9ZM919.1,51.7c2,0,3.5.7,4.7,2,.4-.5.8-.9,1.3-1.3,1.4-1.4,3.3-1.6,5.5-.6.3.1.5.3.8.4.1,0,.2.1.3.2,1.1-1.2,2.8-2.2,5.6-.8,1,.5,1.9,1.1,2.8,1.7.5.3.8,1.1.6,1.7-.1.4-.4.6-.7.8-.4.1-.9,0-1.3-.2-.3-.2-.6-.4-.8-.6-.1-.1-.3-.2-.4-.3l-.3-.2c-.3-.2-.5-.4-.8-.5-.7-.4-1.3-.5-1.7-.3-.4.1-.8.5-1.1,1.2h0c-.1.4-.5,1.2-1.5,1.2-1,0-1.4-.7-1.6-1.1-.3-.6-.9-1-1.5-1.1-.6-.1-1.1,0-1.5.3-.8.7-1.6,1.3-1.8,2.3-.1.5-.5.8-1,1-.6.2-1.3,0-1.7-.5-.2-.2-.4-.5-.6-.8-.1-.2-.2-.3-.4-.5-.6-.8-1.1-1.1-1.8-1.3-.9-.2-1.6,0-2.6.7-1.1.8-1.8,1.8-2.5,2.8-.3.5-.7.9-1,1.3,1.7,1.3,3.4,2,5.2,2.1.8,0,1.6.1,2.5.2,1.4.1,2.8.3,4.2.3,2.5,0,5.2-.6,8-2,.4-.2.8-.4,1.2-.5.4-.1.8-.3,1.1-.5,1.3-.6,2.4-1.3,3.4-1.9.4-.3.9-.6,1.3-1,.3-.2.6-.5.9-.7.4-.3,1-.4,1.5,0,.5.3.5.8.5,1.1,0,.3,0,.6,0,.9,0,.2-.2.7-.6.9-1.4.9-2.8,1.7-4.2,2.6-.3.2-.5.3-.8.4h-.1c-.5.3-.9.5-1.4.6-1.1.5-2.3,1-3.4,1.4-1.5.6-3.6,1.2-5.8,1.2-.2,0-.4,0-.6,0v.2s-.9,0-.9,0c-.9,0-1.7-.2-2.6-.2-2.1-.2-4.2-.4-6.3-.7-1.9-.3-3.7-1.3-5.5-3-.2-.2-.3-.5-.4-.7l-.3-.8.5-.2c0-.3,0-.6.3-.9l.3-.4c.6-.8,1.2-1.6,1.8-2.3.5-.6,1.1-1.3,1.8-1.9.9-.8,2.2-1.6,3.7-1.5ZM915.9,40.1c0-.7.3-1.3,1-1.8.7-.4,1.5-.8,2.5-1.1,1.1-.3,2.2.1,2.8,1.2.2.4.3.9.2,1.4-.2.6-.6,1.1-1.1,1.4-.2.1-.3.2-.5.4-.1.1-.3.2-.5.3-.2.1-.4.2-.6.3l-.5.3h-.3c-.2-.2-.4-.2-.5-.2-.4-.1-.9-.2-1.3-.4-.8-.4-1.2-1-1.3-1.7ZM909,41.2v.4c-.1,0-1-.3-1-.3,0,0,0,0-.1,0-.2,0-.7-.2-.9-.6v-.2c-.5-.7-1-1.7-.3-2.7.7-1.1,1.8-1.7,2.9-1.5.7,0,1.3.2,1.9.3.2,0,.8.2,1.1.8.3.6.1,1.2,0,1.4-.2.5-.4,1-.5,1.5l-.4,1.1h-1c-.2,0-.4,0-.6.1-.4,0-.8,0-1.1-.2ZM957.8,82.2c.3.4.3.8.2,1.2-.1.4-.4.6-.8.8-.8.3-1.6.6-2.4.9-.9.3-1.7.5-2.6.7-.5.1-.9.2-1.4.4-.7.2-1.3.4-2,.5-1.4.4-2.8.8-4.2,1.1-2.2.5-4.4.9-6.6,1.2-1.1.2-2.2.2-3.3.2s-.8,0-1.1,0c-2.2-.1-4.5-.3-7-.7-1.6-.2-3.2-.5-4.8-1-1.6-.4-3-1.3-4.4-2.2l-.4-.3c-.6-.4-1.2-.7-1.9-1.1-.5-.3-1.1-.6-1.6-1-.3-.2-.5-.3-.8-.5-.2-.1-.3-.3-.5-.4-.2-.1-.4-.2-.5-.3-.5-.2-.9-.6-1-1.1-.1-.5,0-1.1.4-1.5.4-.5.7-.8.9-1.2,1.1-1.6,2.1-2.8,3.2-3.9.8-.7,1.7-1.5,3-1.9,1.2-.4,2.4-.2,3.4,0,.2,0,.4,0,.7,0,2,.2,3.4,1.4,4.8,2.5,1.2.9,2.2,2.2,3.3,3.8.5-.4.9-.8,1.3-1.2,1-1.1,2.3-1.9,4-2.6,2.5-.9,4.9-1,7.4-.3.8.2,1.6.7,2.2,1.2.2.1.4.3.6.4.4.2.7.5.9.8l.2.2c.2-.1.4-.2.6-.3l.3-.2c2.5-1.2,4.7-.3,6.6.7.7.4,1.4.9,2,1.4l.4.3c.3.3.7.6,1,1,.2.3.2.8.2,1.1,0,.4-.3.6-.5.7,0,0,0,0-.1,0,.1,0,.2.2.3.4Z"/>
    <path class="st4" d="M962.1,107.9s0,0,0,.2v.2c.3.5.5,1,.7,1.5l-.2-3.7c0,.6-.3,1.2-.6,1.8Z"/>
    <path class="st4" d="M937.6,121c.5,0,.8-.2,1-.4.2-.2.3-.5.3-.7,0-.2-.1-.4-.3-.5-.4-.3-.5-.6-.6-1,0-.4.1-.8.5-1.1.6-.6,1.2-1.2,1.8-1.9.5-.6.6-1.4.6-2.4v-.4c0-.3,0-.7,0-1,0-.2-.2-.3-.2-.3-.4,0-.8.2-1.2.3-.3,0-.6.2-.9.2-.2,0-1,.2-1.4-.4-.3-.4-.2-1-.2-1.2,0-.4.4-.6.5-.7.8-.8,1.4-1.7,1.7-2.9.2-.5-.2-1-.4-1.1-.4-.4-.9-.6-1.3-.5-.3,0-.6.2-.9.3-.3.1-.6.2-.9.3-.5.1-1.1.3-1.5,0-.5-.4-.5-1.3-.4-1.7.2-.7,0-1.4-.3-2-.4-.6-1-.9-1.7-1,0,0-.1,0-.2,0-.7.3-1.5.6-2.2,1-.7.3-1.1.8-1.2,1.4-.2,1.2-1,1.4-1.4,1.3-.7,0-1.2-.5-1.3-1.4v-.4c0-.4-.1-.8-.2-1.2,0-.4-.3-.7-.6-.8-.4-.2-.9,0-1.4.2-.4.2-.7.6-.9,1-.3.6-.5,1.3-.7,2.1-.3,1-1,1.2-1.6,1.1-.2,0-.4,0-.6,0-.6,0-1.3.3-2.1.9-.8.6-1.2,1.4-1.1,2.3,0,.2,0,.4,0,.6v.3c.1,1.1.7,1.8,1.7,2.3.9.5,1.6,1,2.1,1.8.4.6.4,1.2,0,1.8,0,.1-.2.4-.1.5.3.4.8.8,1.3,1.1.8.3,1.6.6,2.5.9.3,0,.6.2.9.3.1,0,.3,0,.5.1.2,0,.4,0,.6.1.3.1.7.2,1,.3.6.2,1.3.5,1.8.5,1,.1,1.8.4,2.6.9,1.9,1.3,4.1,1.8,6.6,1.5Z"/>
    <path class="st4" d="M909.1,38.8h0s0,0,0,.3c0,0,0,0,.1-.1h0c.1-.2.3-.3.4-.3,0,0,0,0,0,0-.2,0-.4,0-.6.1Z"/>
    <path class="st4" d="M926.1,133.8c.4,0,.8,0,1.2,0,0,0,0,0,0,0,0,0,0,0,0,0-.5,0-1.1,0-1.6,0,.1,0,.3,0,.4,0Z"/>
    <path class="st4" d="M927.2,132.6c0-.7,0-1.4-.2-2.1-.3-1.9-.4-3.6-.2-5.3.2-1.4.3-2.8.4-4.2h0c-.4-.2-.8-.4-1.2-.5v.8c-.2,1.1-.3,2.3-.4,3.4-.1,1.8-.3,3.6-.3,5.2,0,.9,0,1.9,0,2.8v1c.1,0,.3,0,.5,0,.6,0,1.1,0,1.6,0,0-.2,0-.3,0-.5v-.7Z"/>
    <path class="st4" d="M951.4,83.3c.7-.2,1.4-.4,2.2-.6l1.1-.3c.5-.1.8-.2,1-.4,0,0,.2-.2.3-.2-.3-.2-.5-.5-.7-.7-1.3-1.5-3-2.3-5.1-2.4-.4,0-1.3,0-1.8.9-.2.4-.6.6-1,.7-.3,0-.9,0-1.5-.6-.8-.7-1.4-1.4-2.2-1.9-1-.8-2.3-.9-3.5-.9-1.5,0-3,.3-4.7,1.1-.2.1-.5.3-.8.6h-.1c-.9.9-1.7,1.6-2.4,2.3-.2.2-.3.4-.5.6-.1.2-.3.4-.4.5-.2.2-.7.8-1.4.5h-.1c-.4-.2-.9-.4-1.2-.9-.3-.5-.6-.9-.9-1.4-.3-.5-.6-1-.9-1.5-1.4-1.9-2.8-3-4.3-3.6-1.2-.4-2.5-.7-3.7,0-1.3.7-2.2,1.6-2.8,2.6,0,.2-.2.4-.5.5-.5.3-.8.8-1.1,1.5,0,.2-.2.3-.3.5.3.3.7.6,1.1.8.5.3,1,.6,1.5.9,1.4.9,2.9,1.8,4.4,2.6,1.6.8,3.3,1.2,5.4,1.4.5,0,1.1.2,1.6.2.9.1,1.7.3,2.6.3,1.1,0,2.2,0,3.3,0,.4,0,.8,0,1.3,0,.1,0,.3,0,.4,0,.2,0,.4,0,.6,0,1.7,0,3.3-.3,5-.7.4,0,.7-.2,1.1-.2.7-.2,1.4-.3,2.1-.4.9-.2,1.7-.3,2.6-.5,1-.2,2-.5,2.9-.8.5-.2,1-.3,1.6-.5Z"/>
    <path class="st4" d="M885.9,77.4c.2-.9.5-1.8.7-2.7-1.3-.2-2.6-.3-3.8-.5-.5,0-1-.2-1.5-.3-.2,0-.3,0-.5-.1,0,.4-.1.9-.2,1.3,0,.6-.2,1.2-.3,1.8,0,0,0,.2,0,.3.1,0,.2,0,.3,0,0,0,.2,0,.2,0h.1c1.5.4,3,.6,4.8.6l.2-.6Z"/>
  </g>
</svg>